<?xml version="1.0" standalone="no"?>
<!DOCTYPE svg PUBLIC "-//W3C//DTD SVG 20010904//EN"
 "http://www.w3.org/TR/2001/REC-SVG-20010904/DTD/svg10.dtd">
<svg version="1.0" xmlns="http://www.w3.org/2000/svg"
 width="1248.000000pt" height="1248.000000pt" viewBox="0 0 1248.000000 1248.000000"
 preserveAspectRatio="xMidYMid meet">
<metadata>
Created by potrace 1.11, written by Peter Selinger 2001-2013
</metadata>
<g transform="translate(0.000000,1248.000000) scale(0.100000,-0.100000)"
fill="#000000" stroke="none">
<path d="M5005 12460 c3 -10 8 -27 10 -37 2 -10 18 -58 35 -108 17 -49 33 -99
35 -110 6 -25 64 -203 75 -230 5 -11 22 -63 38 -115 49 -157 183 -574 189
-590 4 -8 7 -17 8 -20 1 -3 4 -12 7 -20 11 -30 132 -405 134 -415 1 -5 20 -68
44 -140 45 -142 46 -145 50 -160 1 -5 6 -16 12 -22 6 -7 8 -13 6 -13 -3 0 12
-51 32 -112 l37 -113 274 0 c151 0 286 3 302 7 16 4 27 2 27 -3 0 -6 5 -7 11
-3 11 7 327 12 334 6 2 -2 30 -6 62 -8 32 -2 69 -6 83 -9 14 -3 36 -7 50 -10
56 -11 68 -14 135 -38 75 -26 202 -84 222 -102 35 -30 43 -35 51 -35 5 0 48
-37 95 -82 83 -82 138 -154 190 -253 39 -73 82 -186 91 -235 2 -14 5 -26 7
-27 7 -10 22 -123 24 -186 1 -31 5 -60 8 -63 3 -3 2 -17 -3 -30 -6 -14 -6 -26
1 -29 5 -4 6 -11 2 -18 -3 -6 -7 -29 -9 -51 -2 -48 -10 -101 -26 -176 -14 -66
-15 -69 -18 -72 -1 -2 -3 -10 -5 -18 -18 -88 -130 -332 -206 -450 -57 -87
-180 -263 -194 -275 -6 -5 -23 -26 -37 -45 -15 -19 -37 -47 -50 -61 -13 -15
-42 -49 -64 -75 -136 -159 -537 -569 -773 -790 -46 -44 -105 -99 -130 -124
l-46 -45 825 -5 825 -5 0 -205 0 -205 -1153 0 c-635 0 -1158 3 -1164 6 -7 4
-10 62 -10 152 l0 145 288 289 c159 159 311 316 338 349 28 32 57 67 65 76 9
9 21 23 26 30 6 7 26 33 45 58 20 25 63 86 95 135 33 50 62 92 65 95 14 14
107 194 135 261 66 157 68 284 5 323 -21 14 -769 14 -785 1 -10 -8 -60 -203
-81 -315 -3 -14 -7 -33 -10 -42 -5 -16 -10 -40 -20 -87 -3 -14 -7 -28 -9 -31
-2 -4 -7 -21 -10 -38 -4 -25 -18 -86 -52 -227 -2 -11 -5 -26 -5 -32 -1 -7 -5
-13 -10 -13 -5 0 -7 -4 -4 -8 3 -5 -3 -45 -14 -90 -11 -44 -22 -93 -25 -109
-3 -15 -7 -32 -9 -38 -9 -30 -55 -224 -62 -260 -2 -11 -10 -47 -18 -80 -9 -33
-18 -74 -21 -92 -3 -18 -10 -45 -16 -60 -6 -15 -10 -30 -10 -33 1 -3 -2 -21
-6 -40 -9 -46 -10 -50 -13 -52 -1 -2 -3 -12 -5 -23 -1 -11 -8 -40 -14 -65 -6
-25 -14 -56 -17 -70 -2 -14 -7 -33 -10 -42 -3 -9 -6 -25 -8 -35 -2 -10 -14
-60 -26 -111 -12 -51 -23 -99 -24 -105 -1 -7 -8 -37 -16 -68 l-13 -56 -98 -1
-99 -2 0 28 c0 15 0 36 0 47 0 32 -1 478 0 495 0 8 0 116 -1 240 0 124 0 232
0 240 1 8 1 116 0 240 0 124 0 232 0 240 1 8 1 116 0 240 0 124 0 232 0 240 1
8 1 116 0 240 0 124 0 232 0 240 1 8 1 116 0 240 0 124 0 232 0 240 1 8 1 116
0 240 0 124 0 230 0 235 2 29 3 173 2 188 -1 17 -8 15 -63 -16 -35 -19 -85
-47 -113 -62 -27 -16 -86 -48 -130 -73 -89 -50 -139 -78 -205 -113 -25 -13
-48 -28 -51 -32 -3 -5 -12 -9 -20 -10 -8 -2 -25 -10 -39 -20 -13 -9 -30 -17
-37 -17 -7 0 -13 -3 -13 -8 0 -4 -15 -13 -32 -21 -18 -8 -35 -17 -38 -20 -3
-4 -27 -18 -55 -32 -68 -35 -168 -90 -180 -99 -5 -4 -37 -22 -70 -40 -33 -19
-78 -43 -100 -56 -22 -12 -60 -32 -85 -45 -25 -12 -47 -25 -50 -28 -5 -6 -14
-11 -160 -88 -47 -25 -92 -52 -101 -59 -8 -8 -18 -14 -22 -14 -3 0 -178 -96
-389 -213 -211 -117 -390 -217 -398 -221 -8 -4 -37 -20 -65 -36 -27 -16 -69
-39 -92 -51 l-43 -23 0 -4233 0 -4234 2403 4 c1321 2 2429 6 2462 10 33 3 80
9 105 13 25 3 59 8 75 10 49 6 97 14 145 24 25 5 56 12 70 14 14 3 36 8 50 11
14 3 36 8 50 11 92 19 371 111 463 153 37 17 69 31 72 31 16 0 256 133 345
191 25 16 52 32 60 36 8 4 21 13 28 20 8 7 35 27 60 45 26 17 49 34 52 37 3 3
30 26 60 51 142 115 300 276 415 424 17 21 38 47 48 59 9 11 17 24 17 28 0 4
6 14 14 22 27 26 137 198 176 274 14 26 27 50 30 53 3 3 24 43 47 90 35 73 61
131 125 288 6 15 12 33 14 40 1 8 6 21 10 30 4 9 8 19 9 22 0 3 10 34 22 70
33 99 70 244 92 355 24 125 37 197 46 275 15 131 20 236 19 440 0 234 -6 333
-31 490 -3 19 -7 49 -8 65 -2 17 -4 31 -5 33 -3 3 -5 9 -15 67 -5 28 -9 52
-10 55 -1 3 -5 23 -9 45 -4 22 -12 54 -17 71 -5 17 -11 40 -14 50 -23 105
-106 347 -166 483 -32 72 -133 275 -139 281 -3 3 -21 32 -39 65 -19 33 -36 62
-40 65 -3 3 -12 17 -20 33 -8 15 -18 27 -23 27 -4 0 -8 5 -8 12 0 6 -12 27
-27 47 -16 20 -39 52 -52 71 -66 98 -280 327 -412 444 -80 71 -263 202 -359
259 -52 31 -99 60 -105 64 -12 10 -83 43 -90 42 -3 0 -17 9 -32 21 -14 11 -33
20 -42 20 -10 0 -21 4 -26 9 -26 24 -365 149 -415 153 -3 0 -16 5 -30 10 -14
5 -36 12 -50 14 -14 3 -43 10 -65 16 -70 18 -215 46 -280 53 -22 3 -49 7 -60
9 -11 3 -36 5 -54 5 -61 2 -20 19 59 25 41 3 84 7 95 9 11 3 45 8 75 12 67 9
82 12 140 25 25 5 56 12 70 15 22 4 53 12 123 30 9 3 26 7 38 10 29 6 200 66
222 77 10 5 27 11 38 13 31 6 221 97 319 152 71 41 115 67 120 73 3 3 17 11
33 19 15 8 27 18 27 23 0 4 7 8 15 8 8 0 15 4 15 9 0 5 8 12 18 15 10 4 27 14
38 24 11 9 40 32 64 51 25 19 54 43 65 53 11 10 31 28 45 39 35 29 170 159
170 164 0 2 15 19 33 37 61 62 227 271 227 287 0 5 3 11 8 13 8 3 88 128 134
208 71 124 187 375 214 465 2 6 15 42 29 80 25 71 80 259 89 305 2 14 9 45 16
70 6 25 13 59 16 75 3 17 7 41 10 55 3 14 7 41 10 60 2 19 6 46 9 60 7 36 17
118 21 165 13 171 16 227 16 355 1 140 -7 339 -16 390 -2 14 -8 52 -11 85 -12
98 -13 103 -20 147 -16 93 -22 122 -52 248 -14 58 -26 110 -27 115 -8 38 -38
133 -46 147 -6 10 -10 25 -10 34 0 8 -9 36 -19 62 -10 26 -29 74 -42 107 -57
150 -149 339 -236 483 -58 95 -139 218 -153 232 -3 3 -18 23 -35 45 -16 22
-34 45 -40 51 -5 6 -26 31 -45 55 -19 24 -91 100 -160 169 -110 111 -160 155
-232 210 -11 8 -34 27 -52 41 -45 36 -233 159 -245 159 -5 0 -11 3 -13 8 -4 9
-248 134 -248 127 0 -3 -10 1 -22 9 -20 12 -127 57 -150 62 -5 1 -10 3 -13 4
-3 1 -8 3 -12 5 -5 1 -15 4 -23 8 -75 29 -293 85 -394 101 -21 4 -41 8 -45 10
-3 2 -28 7 -56 10 -27 3 -72 8 -100 11 -142 18 -267 22 -784 29 -205 3 -375 7
-378 10 -3 3 -16 1 -29 -4 -13 -5 -24 -6 -24 -2 0 4 -107 8 -238 8 -130 1
-418 4 -640 7 -391 6 -403 5 -397 -13z m2345 -6240 c0 -5 -4 -10 -10 -10 -5 0
-10 5 -10 10 0 6 5 10 10 10 6 0 10 -4 10 -10z m-787 -2257 c5 -3 35 -7 67 -9
32 -2 70 -8 84 -14 14 -5 26 -8 26 -5 0 2 15 -1 33 -6 17 -6 39 -12 47 -14 26
-7 113 -41 165 -65 107 -50 226 -146 310 -250 22 -29 107 -190 99 -190 -2 0 0
-8 5 -19 6 -10 13 -31 15 -47 3 -16 9 -49 14 -74 19 -108 -4 -265 -56 -380 -8
-19 -14 -37 -13 -39 2 -2 -1 -7 -6 -10 -5 -3 -23 -28 -40 -56 -51 -80 -167
-192 -239 -231 -22 -11 -55 -30 -74 -41 -39 -22 -143 -63 -177 -69 -12 -2 -34
-9 -48 -14 -14 -5 -29 -9 -33 -8 -4 1 -23 -2 -42 -6 -19 -5 -48 -11 -65 -14
-16 -2 -398 -6 -847 -8 l-818 -4 0 790 0 790 793 -1 c435 -1 796 -3 800 -6z"/>
</g>
</svg>
