<?xml version="1.0" standalone="no"?>
<!DOCTYPE svg PUBLIC "-//W3C//DTD SVG 20010904//EN"
 "http://www.w3.org/TR/2001/REC-SVG-20010904/DTD/svg10.dtd">
<svg version="1.0" xmlns="http://www.w3.org/2000/svg"
 width="700.000000pt" height="700.000000pt" viewBox="0 0 700.000000 700.000000"
 preserveAspectRatio="xMidYMid meet">
<metadata>
Created by potrace 1.11, written by Peter Selinger 2001-2013
</metadata>
<g transform="translate(0.000000,700.000000) scale(0.100000,-0.100000)"
fill="#000000" stroke="none">
<path d="M1460 6719 c-222 -26 -469 -124 -645 -258 -300 -226 -487 -552 -534
-926 -9 -73 -8 -4064 1 -4137 1 -16 6 -28 10 -28 3 0 4 -13 2 -30 -4 -20 -1
-30 7 -30 7 0 9 -3 6 -6 -3 -4 -2 -15 4 -25 8 -15 6 -18 -8 -13 -12 5 -11 1 5
-11 17 -13 20 -20 12 -30 -8 -10 -8 -15 1 -21 8 -5 10 -3 4 7 -5 8 -4 10 0 6
12 -10 16 -39 5 -32 -5 3 -12 0 -16 -6 -4 -8 -3 -9 4 -5 8 5 12 0 12 -13 0
-12 4 -21 10 -21 5 0 7 8 4 18 -5 13 -4 14 4 3 6 -8 8 -19 6 -26 -3 -6 2 -17
10 -24 8 -7 12 -19 9 -27 -3 -8 0 -14 7 -14 6 0 9 -4 6 -9 -3 -5 1 -14 9 -21
19 -15 10 -31 -13 -24 -15 5 -15 5 1 -6 9 -6 23 -8 30 -4 6 4 9 4 5 -1 -4 -4
-2 -15 4 -23 15 -17 20 -44 7 -36 -5 3 -7 9 -4 14 10 16 -24 18 -37 2 -12 -16
-11 -16 6 -2 18 14 19 13 13 -3 -4 -10 -3 -16 2 -12 5 3 13 0 16 -6 4 -5 14
-8 23 -4 9 3 13 3 9 -1 -4 -4 3 -18 15 -31 12 -13 18 -23 13 -23 -4 0 0 -9 11
-21 10 -12 18 -23 17 -25 -7 -10 -2 -24 8 -24 5 0 7 5 3 12 -4 7 -3 8 5 4 6
-4 9 -12 6 -17 -4 -5 -1 -9 5 -9 7 0 6 -5 -2 -14 -7 -8 -16 -12 -19 -10 -3 2
-6 -3 -6 -11 0 -12 3 -12 20 0 14 10 25 11 32 5 13 -11 8 -60 -6 -60 -4 0 3
-12 16 -26 21 -22 23 -30 13 -43 -9 -11 -6 -10 9 2 12 11 19 25 16 34 -5 12
-7 12 -15 1 -5 -8 -7 -3 -4 15 3 15 1 25 -5 22 -5 -4 -9 -1 -9 4 0 6 7 11 16
11 10 0 14 -6 11 -15 -7 -18 9 -30 17 -13 3 7 3 3 0 -9 -4 -18 -1 -21 18 -17
13 2 16 1 8 -3 -8 -3 -20 -13 -27 -22 -9 -13 -5 -20 22 -38 26 -18 32 -28 30
-52 -2 -19 4 -36 14 -43 14 -11 14 -11 5 2 -12 17 -12 30 0 48 5 9 1 18 -10
27 -11 8 -14 15 -8 15 5 0 16 -6 23 -13 11 -10 13 -9 8 6 -4 11 -3 16 4 12 5
-4 7 -15 4 -25 -10 -32 -15 -63 -8 -57 3 4 17 -3 32 -14 l26 -21 14 21 c7 12
19 21 25 21 7 0 7 -3 1 -8 -14 -10 -39 -56 -27 -48 6 3 12 -1 16 -9 3 -9 12
-12 23 -8 16 6 16 5 5 -10 -8 -9 -12 -22 -9 -29 3 -7 6 -4 6 7 1 17 3 18 12 5
9 -13 10 -13 6 1 -3 9 0 22 6 29 7 7 7 10 2 7 -6 -3 -20 0 -32 6 -16 9 -20 16
-13 27 8 13 10 12 10 -2 0 -10 4 -18 9 -18 6 0 8 10 6 21 -3 12 -1 18 3 15 4
-4 7 -13 7 -19 0 -7 8 -11 18 -9 18 3 23 -13 7 -23 -5 -3 -8 -16 -6 -28 3 -12
5 -25 5 -29 1 -5 6 -8 12 -8 16 0 39 -26 31 -35 -4 -4 4 -2 17 5 21 11 23 10
18 -4 -4 -10 -3 -15 3 -11 6 3 20 -1 32 -9 13 -10 17 -16 9 -16 -8 0 -12 -3
-9 -6 4 -3 16 -1 27 6 17 9 22 8 27 -5 3 -8 11 -15 16 -15 6 0 5 6 -2 15 -9
11 -9 15 -1 15 7 0 9 5 5 11 -3 6 -9 7 -13 3 -9 -13 -44 -17 -36 -5 3 6 13 11
21 11 8 0 12 4 9 10 -3 6 1 7 9 4 9 -3 16 -10 16 -15 0 -5 4 -9 10 -9 5 0 7 8
4 18 -5 14 -4 14 4 2 6 -8 8 -18 5 -24 -4 -5 1 -7 10 -3 11 4 14 2 11 -8 -3
-8 -9 -13 -12 -12 -4 1 -18 -7 -32 -17 -15 -11 -18 -16 -7 -12 18 6 109 -33
102 -44 -2 -4 2 -7 10 -7 8 0 12 4 9 9 -3 4 4 7 16 5 12 -2 26 -10 31 -18 5
-8 9 -10 9 -5 0 5 9 1 19 -8 11 -10 17 -26 15 -39 -4 -21 -4 -21 5 -2 5 12 5
25 -1 32 -5 7 -5 14 2 18 5 3 10 1 10 -5 0 -6 5 -8 10 -5 6 3 13 -1 16 -9 7
-17 44 -22 44 -6 0 6 10 5 26 -2 17 -8 24 -18 21 -30 -3 -10 -1 -16 4 -12 5 3
9 13 9 22 0 15 2 15 11 2 8 -12 9 -11 5 5 -5 16 -1 21 15 22 17 2 19 -1 10
-10 -6 -6 -11 -15 -11 -21 0 -5 6 -1 14 9 15 22 10 49 -8 38 -16 -11 -30 -10
-38 2 -5 6 -8 6 -8 -2 0 -6 -11 -10 -25 -8 -14 1 -28 -2 -31 -6 -3 -5 -10 -9
-17 -9 -7 0 -6 5 3 15 15 14 71 22 99 14 7 -2 15 1 18 7 2 6 -2 11 -9 12 -7 0
-23 3 -35 6 -13 2 -23 1 -23 -5 0 -5 -5 -9 -12 -9 -9 0 -9 3 0 12 14 14 62 19
62 7 0 -4 9 -6 20 -4 11 2 18 0 15 -5 -3 -5 -1 -19 5 -31 9 -15 9 -24 1 -32
-15 -15 -14 -24 5 -31 14 -5 15 -4 5 8 -7 8 -8 17 -3 20 6 3 12 -1 15 -8 4
-10 16 -13 37 -11 22 3 29 1 23 -8 -5 -9 -3 -9 8 -1 20 14 63 11 85 -6 10 -8
15 -10 11 -3 -4 6 -3 14 2 17 5 4 13 1 17 -5 5 -9 11 -7 19 5 11 14 14 14 25
1 9 -11 17 -12 30 -5 15 8 22 5 33 -10 12 -18 16 -18 26 -6 7 8 18 13 26 10 7
-3 16 -1 20 5 3 6 11 11 17 11 6 0 5 -7 -3 -17 -12 -14 -9 -13 15 2 l29 19 -8
-24 c-8 -24 -7 -24 17 3 26 28 52 21 41 -12 -4 -13 -3 -14 5 -1 6 8 9 17 7 21
-3 3 6 7 20 7 14 0 23 -4 20 -8 -2 -3 2 -7 10 -7 8 0 12 4 9 9 -8 13 10 10 25
-5 8 -7 11 -7 8 -1 -4 7 0 17 8 24 13 10 19 10 35 -5 10 -9 16 -24 13 -33 -4
-14 -3 -15 5 -2 6 8 9 17 6 21 -2 4 10 7 28 6 23 -1 32 2 30 11 -1 8 2 11 7 7
6 -3 7 -13 4 -22 -4 -11 -3 -14 5 -9 7 4 12 14 12 23 0 11 5 9 21 -8 11 -13
18 -18 14 -11 -4 8 0 11 12 9 26 -4 44 -17 38 -28 -4 -5 2 -6 12 -2 15 6 16 4
6 -8 -10 -13 -10 -16 1 -16 16 0 15 25 -2 36 -9 5 -6 13 9 27 22 19 22 19 15
-6 -5 -17 -4 -21 2 -11 8 11 10 11 14 0 3 -8 2 -21 -3 -29 -5 -11 -2 -16 11
-16 10 0 16 5 12 11 -11 18 -12 44 -2 50 6 4 10 3 9 -2 -3 -19 2 -23 21 -13
15 8 20 8 20 -2 0 -8 3 -9 8 -3 8 12 22 13 40 2 7 -5 14 -2 18 8 6 14 8 14 23
1 11 -10 21 -12 31 -6 10 6 21 4 33 -7 13 -12 20 -14 29 -5 8 8 17 8 31 1 13
-8 17 -8 13 -1 -3 6 -2 13 4 17 5 3 10 1 10 -5 0 -8 6 -8 20 0 15 8 20 8 20
-2 0 -9 3 -9 10 2 9 13 10 13 10 0 0 -9 3 -11 8 -5 14 19 33 15 42 -10 5 -14
12 -25 15 -25 2 0 1 10 -4 23 -9 25 -4 50 9 42 5 -3 7 -13 4 -23 -3 -9 2 -6
11 8 l16 25 -6 -25 -6 -25 16 25 c14 22 15 23 10 3 -5 -18 -2 -22 15 -20 11 1
20 5 20 10 0 4 5 5 10 2 6 -3 10 -1 10 6 0 9 3 9 14 -1 8 -6 12 -19 9 -28 -4
-14 -3 -15 5 -2 6 8 9 17 7 21 -3 3 6 7 20 7 14 0 23 -4 20 -8 -2 -3 2 -7 10
-7 8 0 12 4 9 9 -8 13 10 10 25 -5 8 -7 11 -7 8 -1 -4 7 0 17 8 24 13 10 19
10 35 -5 10 -9 16 -24 13 -33 -4 -14 -3 -15 5 -2 6 8 9 17 6 21 -2 4 10 7 28
6 23 -1 32 2 30 11 -1 8 2 11 7 7 6 -3 7 -13 4 -22 -4 -11 -3 -14 5 -9 7 4 12
15 12 24 0 14 2 13 13 -3 8 -10 19 -15 25 -11 7 4 12 1 12 -6 0 -8 3 -9 8 -3
8 12 22 13 39 2 7 -4 16 -1 21 8 8 15 10 15 21 1 10 -11 18 -13 31 -6 15 8 22
5 33 -10 12 -18 16 -18 26 -6 7 8 18 13 26 10 7 -3 16 -1 20 5 3 6 11 11 17
11 6 0 5 -7 -3 -17 -12 -14 -9 -13 15 2 l29 19 -8 -23 -7 -23 22 22 c18 18 24
20 31 9 5 -9 9 -10 9 -2 0 12 17 12 37 0 7 -4 16 -1 21 8 8 15 10 15 21 1 10
-11 18 -13 31 -6 15 8 22 5 33 -10 12 -18 16 -18 26 -6 7 8 18 13 26 10 7 -3
16 -1 20 5 3 6 11 11 17 11 6 0 5 -7 -3 -17 -12 -14 -9 -13 15 2 l29 19 -7
-24 c-6 -21 -5 -22 4 -7 6 9 16 14 22 11 7 -4 8 -2 4 4 -5 8 -1 11 11 9 26 -4
44 -17 38 -28 -4 -5 2 -6 12 -2 15 6 16 4 6 -8 -10 -12 -9 -15 5 -15 10 0 18
8 18 17 0 10 -3 16 -6 14 -3 -2 -11 0 -18 4 -9 5 -7 13 9 27 21 17 22 18 16 1
-4 -11 -3 -16 3 -12 10 6 13 -2 13 -36 0 -9 6 -16 13 -16 7 0 10 5 6 11 -11
19 -12 45 -2 51 6 4 10 3 9 -2 -3 -19 2 -23 21 -13 15 8 20 8 20 -2 0 -8 3 -9
8 -3 8 12 22 13 40 2 7 -5 14 -2 18 8 6 14 8 14 23 1 11 -10 21 -12 31 -6 10
6 21 4 33 -7 13 -12 20 -14 29 -5 8 8 17 8 31 1 13 -8 17 -8 13 -1 -3 6 -2 13
4 17 5 3 10 1 10 -5 0 -8 6 -8 20 0 15 8 20 8 20 -2 0 -11 2 -11 8 0 9 13 38
12 60 -1 7 -5 10 -13 7 -18 -4 -5 2 -6 12 -2 15 6 16 4 6 -8 -10 -12 -8 -15 7
-15 14 0 16 4 9 17 -5 10 -14 19 -20 21 -6 2 -1 12 12 23 l22 20 -7 -25 c-6
-19 -5 -21 3 -10 10 13 11 13 12 0 1 -8 1 -20 0 -26 -1 -7 6 -14 14 -18 11 -4
14 -2 8 7 -12 20 -14 45 -3 52 6 4 9 1 8 -5 -2 -7 5 -14 15 -15 9 -2 15 1 11
6 -6 10 25 7 44 -4 7 -5 10 -13 7 -18 -4 -5 2 -6 12 -2 15 6 16 4 6 -8 -10
-12 -9 -15 5 -15 10 0 18 8 18 17 0 10 -3 16 -6 14 -3 -2 -11 0 -18 4 -9 5 -7
13 9 27 21 17 22 18 16 1 -4 -11 -3 -16 3 -12 10 6 13 -2 13 -36 0 -9 6 -16
13 -16 7 0 10 5 6 11 -11 19 -12 45 -2 51 6 4 10 3 9 -2 -3 -19 2 -23 21 -13
15 8 20 8 20 -2 0 -8 3 -9 8 -3 8 12 22 13 40 2 7 -5 14 -2 18 8 6 14 8 14 23
1 11 -10 21 -12 31 -6 10 6 21 4 33 -7 13 -12 20 -14 29 -5 8 8 17 8 31 1 13
-8 17 -8 13 -1 -3 6 -2 13 4 17 5 3 10 1 10 -5 0 -8 6 -8 20 0 15 8 20 8 20
-2 0 -11 2 -11 8 0 9 13 38 12 60 -1 7 -5 10 -13 7 -18 -4 -5 2 -6 12 -2 15 6
16 4 6 -8 -10 -12 -8 -15 7 -15 14 0 16 4 9 17 -5 10 -14 19 -20 21 -6 2 -1
12 12 23 l22 20 -7 -25 c-6 -19 -5 -21 3 -10 10 13 11 13 12 0 1 -8 1 -20 0
-26 -1 -7 6 -14 14 -18 11 -4 14 -2 8 7 -12 20 -14 45 -3 52 6 4 9 1 8 -5 -2
-7 5 -14 15 -15 9 -2 15 1 11 6 -6 10 25 7 44 -4 7 -5 10 -13 7 -18 -4 -5 2
-6 12 -2 15 6 16 4 6 -8 -10 -12 -9 -15 5 -15 10 0 18 8 18 17 0 10 -3 16 -6
14 -3 -2 -11 0 -18 4 -9 5 -7 13 9 27 21 17 22 18 16 1 -4 -11 -3 -16 3 -12
10 6 13 -2 13 -36 0 -9 6 -16 13 -16 7 0 10 5 6 11 -11 19 -12 45 -2 51 6 4 9
1 8 -5 -2 -7 5 -14 16 -15 14 -3 16 -1 7 8 -13 13 -15 27 -3 27 5 0 15 -11 22
-25 7 -13 17 -22 23 -18 5 3 5 8 1 12 -12 8 -16 31 -6 31 13 0 33 -40 27 -53
-4 -7 0 -4 8 5 8 10 18 14 22 10 5 -4 5 -1 0 7 -5 9 -3 12 6 9 8 -3 13 -14 11
-24 -2 -18 -1 -17 10 1 14 22 57 28 70 10 5 -7 8 -7 8 0 0 6 16 10 35 11 20 0
32 -3 28 -9 -4 -6 -1 -7 8 -1 8 4 27 9 42 10 16 2 36 8 44 16 15 11 16 11 9
-7 -5 -14 -4 -17 4 -9 6 6 8 19 4 28 -5 14 -9 15 -15 4 -7 -10 -9 -11 -9 0 0
7 -4 10 -10 7 -6 -4 -7 1 -4 12 5 15 4 16 -5 3 -8 -11 -6 -18 7 -28 16 -13 16
-14 -3 -10 -14 3 -19 11 -18 28 l3 25 -13 -23 c-10 -18 -15 -20 -26 -10 -10
11 -12 10 -9 -1 2 -7 -3 -16 -11 -19 -8 -2 -11 0 -8 5 3 5 0 10 -8 10 -8 0
-15 -4 -15 -9 0 -5 -5 -6 -10 -3 -6 4 -7 11 -4 17 4 7 0 7 -12 0 -11 -5 -36
-8 -57 -7 -21 1 -40 -2 -43 -7 -3 -4 -11 -2 -17 4 -15 15 -20 58 -7 58 5 0 7
-9 5 -20 -3 -15 2 -20 17 -20 17 0 18 2 8 15 -7 9 -10 18 -6 22 3 3 6 1 6 -7
0 -8 4 -9 13 -3 15 12 57 11 76 -1 11 -7 13 -5 8 8 -4 10 -3 15 3 11 6 -4 9
-14 8 -22 -2 -9 2 -18 9 -20 8 -3 10 4 7 22 -3 17 -1 24 6 20 6 -4 9 -14 8
-22 -2 -9 2 -18 9 -20 7 -3 10 6 8 22 -2 18 1 23 8 16 7 -7 15 -5 24 7 8 9 12
12 9 6 -3 -7 2 -18 11 -25 15 -12 16 -12 10 4 -4 11 -3 16 3 12 6 -3 10 -1 10
4 0 6 5 11 11 11 5 0 7 -5 3 -11 -4 -7 -1 -10 7 -7 8 3 13 10 12 15 -2 10 12
14 64 15 18 0 30 4 27 9 -3 5 2 6 10 3 18 -7 22 -25 5 -22 -6 2 -14 -3 -17
-11 -2 -8 0 -11 6 -7 17 10 38 -3 39 -25 2 -17 -1 -18 -13 -8 -8 6 -17 9 -20
6 -9 -9 6 -28 17 -22 5 4 9 1 9 -6 0 -7 6 -4 14 7 9 12 11 21 4 25 -5 3 -9 9
-9 13 1 3 1 7 0 9 0 1 -2 15 -4 32 -3 21 -2 26 5 15 9 -14 14 -7 11 13 -1 4 7
3 18 -2 10 -6 20 -8 23 -6 3 3 10 -6 16 -20 7 -15 8 -27 2 -30 -6 -4 -10 3
-10 14 0 12 -7 21 -15 21 -8 0 -18 0 -22 1 -4 0 -9 -4 -11 -11 -2 -6 0 -10 5
-9 20 4 34 -2 28 -12 -4 -6 -13 -8 -21 -5 -12 4 -12 2 -4 -14 6 -11 9 -24 6
-28 -3 -4 0 -14 5 -22 9 -13 10 -13 8 0 -4 37 1 45 16 26 8 -11 15 -15 15 -8
0 6 7 9 14 6 11 -4 14 1 12 23 -1 15 1 36 6 45 6 13 5 16 -6 12 -9 -3 -17 3
-21 15 -4 13 -11 18 -23 14 -9 -3 -14 -3 -11 1 4 4 16 8 27 11 16 3 19 0 15
-13 -6 -15 -5 -15 10 -3 9 7 14 18 11 25 -3 6 1 3 9 -7 11 -13 17 -15 22 -6 4
6 2 15 -5 19 -8 5 -8 10 -2 14 13 8 23 -19 15 -41 -6 -16 -5 -16 10 -4 10 8
15 21 12 31 -3 10 2 23 12 31 13 9 15 9 7 0 -16 -18 -5 -51 17 -51 10 0 21 4
24 10 3 5 0 7 -8 4 -18 -7 -29 9 -21 30 5 14 8 14 27 1 28 -19 35 -19 33 3 -1
11 5 16 17 14 21 -3 23 14 2 22 -8 3 -20 -3 -28 -14 -13 -19 -27 -17 -27 3 0
6 3 7 7 4 3 -4 15 0 25 10 10 9 21 13 25 10 3 -4 12 1 19 11 7 9 17 18 23 18
6 1 16 2 22 3 5 0 8 5 5 9 -2 4 5 14 17 21 18 11 20 11 10 0 -18 -19 -16 -34
2 -19 13 10 18 11 28 1 9 -10 9 -11 -4 -6 -10 4 -16 0 -16 -10 0 -11 7 -14 21
-10 21 6 21 6 1 -10 -16 -13 -20 -13 -27 -2 -10 18 -70 16 -76 -2 -3 -9 0 -11
9 -6 11 6 12 5 2 -6 -19 -20 -16 -34 4 -18 11 10 14 10 9 2 -4 -8 -2 -13 4
-13 6 0 8 -5 4 -11 -5 -8 -9 -8 -14 1 -5 9 -9 9 -14 1 -4 -6 -12 -8 -18 -5 -7
5 -8 2 -4 -7 4 -8 0 -5 -8 5 -9 11 -16 16 -16 11 0 -5 8 -17 17 -27 13 -15 14
-21 4 -31 -10 -9 -11 -8 -6 8 5 15 3 14 -8 -4 -8 -14 -17 -19 -21 -13 -3 6 0
12 6 15 7 2 9 8 5 13 -9 9 -28 -16 -21 -28 3 -4 -9 -5 -26 -3 -16 2 -32 -1
-36 -6 -3 -5 -10 -6 -16 -3 -7 5 -8 2 -3 -6 6 -9 4 -11 -5 -5 -8 5 -11 4 -7
-2 3 -5 0 -10 -8 -10 -10 0 -12 4 -5 12 8 9 6 14 -6 19 -23 9 -28 7 -17 -7 6
-6 9 -27 7 -44 -2 -34 8 -41 35 -24 7 5 11 13 7 19 -7 11 12 11 32 -1 6 -5 12
-4 12 2 0 10 39 27 53 23 5 -1 6 2 2 7 -6 10 29 34 37 25 3 -2 11 2 18 11 10
12 10 18 0 30 -15 18 -1 19 22 1 10 -7 15 -16 11 -19 -3 -4 -1 -7 6 -7 7 0 10
7 7 18 -5 16 -1 19 23 17 21 -1 28 2 24 12 -3 7 2 13 11 13 9 0 16 5 16 10 0
7 -6 7 -19 0 -13 -7 -22 -7 -26 0 -6 10 -2 12 33 13 9 1 21 6 25 12 5 5 6 -1
3 -15 l-6 -25 12 23 c6 13 17 21 25 18 7 -3 12 -1 10 3 -1 5 3 9 8 9 6 1 8 -7
7 -16 -2 -9 -1 -14 3 -10 6 6 12 28 14 53 1 6 6 3 11 -5 5 -8 10 -10 10 -4 0
5 -5 15 -12 22 -16 16 4 16 21 -1 8 -6 11 -7 9 -2 -7 12 17 37 26 27 4 -3 4 2
0 13 -7 19 -7 19 13 2 16 -14 20 -14 20 -2 0 8 -4 12 -8 10 -3 -3 -13 3 -20
12 -12 15 -12 16 2 11 21 -8 62 20 55 38 -3 7 -1 16 4 19 10 6 15 -9 10 -30
-1 -5 2 -6 7 -2 8 9 9 14 12 43 1 10 7 14 17 10 8 -3 13 -2 9 3 -8 14 6 42 18
34 6 -3 7 -1 3 6 -4 6 -12 8 -18 5 -7 -5 -9 -2 -5 8 3 9 -1 24 -9 35 -13 17
-14 16 -10 -9 3 -18 0 -27 -7 -25 -7 1 -11 -12 -11 -35 1 -36 -12 -46 -28 -23
-9 13 -29 14 -44 3 -7 -5 -14 -2 -18 7 -3 9 -10 13 -16 10 -6 -4 -7 1 -3 11 5
15 7 15 15 0 11 -19 24 -21 26 -3 3 32 31 96 32 72 0 -6 9 -11 20 -11 13 0 19
5 15 14 -3 7 -5 17 -5 20 0 4 -5 0 -10 -8 -5 -8 -10 -10 -10 -5 1 6 10 21 21
34 15 18 23 21 31 13 7 -7 17 -12 23 -12 5 1 -1 10 -15 22 l-25 21 23 -8 c22
-6 23 -5 13 14 -10 17 -9 20 5 14 13 -5 15 -3 9 8 -8 12 -6 12 8 0 12 -9 17
-10 17 -2 0 6 -7 14 -15 17 -11 5 -12 9 -2 18 6 7 15 12 18 12 11 -2 39 26 39
38 0 6 -4 4 -10 -4 -5 -8 -13 -11 -17 -6 -4 5 -2 11 5 13 6 3 12 11 12 19 0
17 16 19 26 2 4 -6 3 -8 -3 -5 -6 4 -9 -10 -9 -33 0 -21 3 -37 7 -34 4 2 5 -5
2 -16 -7 -28 -43 -52 -58 -40 -22 19 -24 -3 -2 -22 12 -11 16 -16 8 -12 -10 5
-12 3 -6 -6 5 -9 4 -11 -3 -6 -8 5 -10 1 -6 -11 4 -14 3 -15 -4 -4 -6 8 -12 9
-16 3 -3 -5 1 -13 10 -16 9 -4 14 -9 11 -13 -4 -3 -13 0 -21 7 -9 6 -21 10
-28 7 -9 -3 -6 -8 7 -13 11 -5 21 -13 22 -19 3 -19 33 -70 33 -57 0 7 -8 25
-17 39 -17 26 -17 27 0 20 10 -4 21 -7 23 -7 3 0 3 -3 1 -7 -3 -5 5 -8 17 -8
13 0 23 5 23 11 0 6 -9 9 -21 6 -19 -5 -19 -4 -7 11 7 9 18 14 24 10 6 -3 7
-1 3 5 -3 6 2 15 11 21 10 6 13 11 8 11 -6 0 -16 -5 -23 -12 -8 -8 -12 -8 -12
-1 0 14 25 34 33 26 4 -3 8 -1 8 5 1 7 2 17 3 22 0 6 8 15 16 20 8 5 11 10 6
10 -6 0 -1 6 10 14 17 13 17 15 3 21 -10 4 -15 15 -14 29 2 13 -2 29 -7 37 -8
11 -9 10 -4 -4 3 -11 2 -16 -4 -12 -6 4 -10 3 -9 -2 4 -23 -2 -43 -11 -38 -8
5 -7 11 1 21 6 8 8 14 4 14 -4 0 1 12 10 27 14 21 14 25 3 20 -8 -3 -21 -1
-29 4 -9 6 -10 9 -2 9 7 0 10 6 7 13 -3 8 2 20 10 27 9 7 13 16 10 21 -3 5 0
9 5 9 6 0 10 4 9 9 -2 5 2 9 7 10 6 1 11 -3 11 -9 1 -5 2 -15 3 -21 0 -5 6 -7
11 -4 6 4 8 11 4 16 -3 5 0 17 7 25 11 13 10 15 -2 14 -27 -4 -40 0 -33 11 5
8 9 8 14 -1 5 -8 9 -7 13 4 4 9 2 16 -3 16 -6 0 -10 8 -9 18 0 10 3 12 6 4 2
-6 10 -9 15 -6 7 5 8 2 3 -6 -6 -10 -4 -12 8 -7 54 22 53 22 38 4 -7 -9 -18
-14 -24 -10 -6 3 -7 1 -3 -5 5 -8 1 -10 -10 -5 -12 4 -15 3 -10 -5 4 -7 14
-12 22 -12 9 0 12 -5 8 -12 -4 -7 -3 -8 5 -4 6 4 20 2 29 -6 16 -12 16 -11 2
6 -14 18 -13 19 5 12 11 -4 16 -4 12 0 -4 4 1 17 10 28 17 20 17 20 1 7 -20
-15 -25 -2 -6 17 9 9 9 12 -1 12 -7 0 -9 5 -6 10 4 6 12 7 18 3 18 -11 36 -12
42 -3 3 5 -3 7 -15 5 -21 -4 -38 13 -24 24 14 9 16 41 4 41 -6 0 -9 4 -5 10 3
5 11 8 18 6 7 -1 9 -1 5 1 -5 3 -8 9 -8 14 0 6 6 7 13 3 9 -6 9 -5 0 8 -17 19
-5 31 16 16 9 -7 8 -3 -3 8 -13 13 -20 15 -23 7 -6 -18 -20 -16 -20 2 0 8 7
17 14 19 8 3 11 10 8 16 -3 5 -2 10 3 10 5 0 14 12 21 28 l12 27 -22 -25 c-12
-14 -19 -18 -16 -9 3 9 -2 27 -11 40 -13 19 -14 22 0 17 8 -4 21 -3 28 2 18
11 3 30 -18 23 -15 -6 -15 -4 -4 10 8 9 21 13 30 10 9 -3 14 -3 11 1 -10 11
-50 16 -44 5 4 -5 1 -9 -5 -9 -6 0 -10 8 -8 17 4 20 29 25 40 9 4 -6 10 -7 14
-3 4 4 5 10 2 13 -5 5 -14 7 -48 13 -3 1 2 5 10 11 9 6 20 5 30 -3 13 -10 13
-10 2 5 -9 11 -10 18 -2 23 15 9 -8 48 -25 41 -23 -8 -26 9 -4 22 10 7 19 9
19 5 0 -5 8 -17 18 -28 9 -11 16 -18 15 -16 -2 2 3 11 10 19 10 13 9 14 -2 7
-9 -5 -19 -2 -27 10 -12 16 -11 22 4 39 12 15 9 14 -11 -3 -15 -14 -27 -20
-27 -14 0 5 9 18 20 28 14 13 17 22 10 35 -5 10 -7 20 -4 22 2 3 -2 11 -11 18
-8 7 -15 17 -15 23 0 7 4 7 12 -1 16 -16 25 -15 25 3 0 8 -4 12 -9 9 -11 -7
-50 21 -41 29 3 4 13 2 20 -5 19 -16 34 8 27 42 -10 47 -9 55 6 52 8 -2 11 0
7 5 -5 4 -14 8 -19 8 -6 0 -13 6 -16 14 -3 8 0 11 5 8 5 -3 9 6 8 21 0 17 -6
26 -14 24 -7 -1 -11 3 -8 10 2 7 11 12 18 11 8 -2 15 6 16 16 2 19 1 19 -18 3
-10 -9 -32 -17 -47 -18 -25 -1 -29 2 -29 27 0 16 4 29 9 29 5 0 6 6 1 13 -10
17 -12 107 -1 107 4 0 8 5 8 11 0 5 -3 8 -8 6 -4 -3 -8 10 -8 29 -1 19 3 34 9
34 5 0 4 7 -3 15 -10 12 -10 18 0 30 7 8 8 15 3 15 -5 0 -10 14 -10 30 0 17 4
30 9 30 5 0 6 6 1 13 -13 21 -14 49 -2 63 9 11 8 14 -2 14 -12 0 -12 2 0 9 11
7 11 9 0 14 -11 4 -11 6 -1 6 8 1 10 6 5 14 -10 16 -11 317 -1 311 5 -3 8 0 8
7 0 18 10 5 15 -20 2 -12 0 -19 -4 -17 -4 3 -8 -1 -8 -9 0 -8 5 -11 10 -8 6 4
7 1 1 -8 -10 -16 -13 -200 -3 -194 3 2 6 -2 6 -10 0 -8 -5 -11 -11 -8 -8 5 -8
3 0 -8 12 -16 12 -29 0 -48 -6 -9 -5 -12 1 -8 5 3 10 0 10 -8 0 -8 -4 -12 -8
-9 -4 2 -6 -5 -4 -16 3 -14 0 -18 -8 -13 -9 5 -9 3 -1 -8 6 -8 10 -22 9 -31
-2 -10 1 -20 6 -24 5 -3 6 -10 3 -16 -5 -7 -2 -8 6 -3 9 5 11 4 6 -4 -4 -6
-11 -9 -16 -6 -10 6 -7 -45 3 -63 5 -7 3 -12 -3 -12 -6 0 -8 -5 -4 -11 4 -8 9
-7 16 2 8 11 9 11 5 -1 -3 -10 6 -22 24 -32 26 -15 29 -15 41 0 11 15 11 15
-4 4 -22 -17 -33 1 -17 29 6 12 7 19 1 15 -6 -3 -13 0 -15 6 -4 10 -8 10 -15
-1 -14 -20 -20 -3 -13 37 1 4 5 0 11 -8 11 -17 19 -11 25 19 3 16 -3 25 -21
33 -19 9 -24 18 -22 44 1 18 10 36 20 43 22 13 23 3 3 -23 -8 -11 -15 -23 -15
-28 0 -13 42 -30 51 -21 5 5 0 9 -12 10 -31 3 -33 8 -13 42 15 25 21 28 33 19
13 -10 14 -10 4 2 -15 17 -53 24 -53 10 0 -6 -4 -10 -8 -10 -5 0 -9 7 -9 15 0
17 24 28 40 18 7 -3 9 -3 5 2 -4 4 -2 15 5 23 9 13 9 14 0 8 -8 -4 -13 -2 -13
5 0 10 -3 10 -12 1 -19 -19 -29 -14 -16 7 7 11 16 17 20 15 4 -3 8 0 8 6 0 7
-8 9 -22 5 -22 -7 -22 -6 -6 11 17 17 18 17 41 -4 18 -17 24 -19 24 -7 0 8 -3
13 -5 10 -3 -3 -16 5 -29 17 -13 12 -23 16 -23 9 0 -7 -4 -10 -9 -7 -13 8 -7
36 8 46 11 6 11 9 0 16 -8 5 -15 19 -15 32 -2 25 -3 25 28 13 20 -7 24 -6 24
10 0 14 -3 15 -13 7 -8 -6 -16 -8 -19 -5 -3 3 3 12 15 19 23 14 28 29 9 25 -8
-1 -12 6 -10 18 2 17 0 17 -11 -4 -8 -13 -17 -19 -20 -14 -4 6 3 20 15 33 l21
22 -24 -7 c-21 -7 -22 -6 -11 8 11 13 10 17 -5 25 -10 5 -24 7 -30 5 -16 -6
-17 9 -1 25 9 9 9 12 -2 12 -13 0 -13 1 0 9 19 13 34 3 20 -14 -12 -14 5 -25
28 -17 10 3 9 9 -5 25 -17 20 -17 20 0 14 11 -4 25 -1 34 8 14 14 12 15 -15
10 -27 -4 -30 -2 -27 14 2 11 9 29 15 40 9 17 8 20 -5 15 -9 -4 -15 -3 -14 2
3 18 -1 34 -9 34 -13 0 -18 -50 -9 -87 3 -13 1 -25 -4 -29 -17 -10 -23 4 -9
21 7 8 8 15 3 15 -5 0 -9 14 -9 30 0 17 4 30 9 30 5 0 4 7 -3 15 -10 12 -10
18 0 30 7 8 9 15 4 15 -5 0 -10 19 -11 42 -3 37 6 50 11 16 1 -7 6 -19 10 -27
7 -10 5 -12 -3 -6 -10 6 -11 3 -3 -11 6 -11 10 -23 10 -27 0 -5 3 -11 6 -15 6
-5 10 17 9 46 -1 16 8 15 33 -2 17 -13 21 -13 21 -1 0 8 -4 12 -9 9 -11 -7
-10 3 3 29 8 19 8 20 -3 7 -7 -8 -21 -16 -31 -18 -15 -3 -16 0 -5 17 6 11 14
19 17 19 17 -1 31 3 31 10 0 4 -9 8 -20 9 -11 1 -20 -3 -20 -9 0 -17 -13 0
-16 19 -2 10 2 23 8 30 16 19 3 27 -21 13 -26 -13 -27 -26 -3 -39 13 -8 14
-10 2 -11 -13 0 -13 -1 0 -10 8 -5 10 -10 4 -10 -30 0 -42 53 -21 88 5 6 4 12
0 12 -5 0 -9 65 -9 144 0 80 4 142 8 140 5 -3 8 0 8 5 0 6 -4 11 -8 11 -4 0
-8 42 -8 94 0 52 3 93 6 91 3 -1 11 4 19 12 12 13 11 14 -6 9 -17 -5 -20 -2
-20 19 0 13 3 22 8 19 5 -3 9 0 9 5 0 6 -4 11 -9 11 -11 0 -9 70 2 88 5 6 4
12 0 12 -12 0 -10 436 1 447 5 5 6 3 2 -5 -4 -7 -4 -12 1 -11 22 4 25 -3 7
-17 -10 -8 -14 -13 -7 -10 6 4 14 2 17 -3 3 -5 -2 -12 -12 -16 -16 -6 -16 -7
2 -21 13 -9 15 -14 6 -14 -7 0 -10 -3 -7 -7 4 -3 2 -12 -4 -19 -7 -8 -7 -14 1
-19 6 -3 7 -12 3 -18 -10 -17 -13 -38 -4 -32 4 2 8 -2 8 -10 0 -8 -3 -12 -7
-10 -3 2 -6 -7 -6 -20 0 -14 4 -21 10 -18 6 3 5 0 -1 -8 -7 -7 -13 -18 -13
-23 0 -6 4 -5 9 3 6 9 11 10 15 2 4 -6 2 -11 -5 -11 -7 0 -9 -3 -6 -6 3 -4 2
-15 -4 -25 -8 -15 -6 -17 8 -12 16 6 16 5 4 -10 -8 -10 -11 -20 -7 -24 3 -3 6
-1 6 6 0 7 5 9 10 6 16 -10 0 -27 -19 -21 -13 5 -13 4 2 -8 15 -11 15 -15 3
-19 -18 -7 -15 -35 5 -48 12 -7 12 -9 -1 -9 -12 0 -12 -2 -1 -9 8 -5 9 -11 3
-15 -6 -3 -12 0 -15 6 -2 7 -4 -3 -3 -24 1 -21 5 -34 11 -30 6 3 7 2 3 -3 -4
-4 -3 -17 3 -28 7 -12 7 -17 1 -13 -5 3 -12 0 -15 -8 -4 -9 0 -12 13 -9 17 5
25 43 8 43 -4 0 -5 9 -3 20 2 11 -1 20 -6 20 -6 0 -7 5 -3 12 5 8 12 2 20 -17
11 -24 13 -26 14 -9 0 11 -3 24 -7 28 -14 14 -12 38 4 32 8 -3 18 -6 21 -6 4
0 2 -4 -5 -8 -9 -5 -6 -12 10 -21 19 -13 21 -12 10 1 -7 8 -10 18 -7 21 4 3
-5 12 -20 18 -18 9 -25 17 -20 28 3 9 8 22 11 29 3 6 0 12 -7 12 -6 0 -8 5 -4
11 4 8 9 8 17 0 6 -6 15 -11 20 -11 5 0 -2 10 -17 21 -15 12 -25 24 -22 27 3
3 14 -2 25 -12 17 -15 19 -15 25 -1 3 9 2 13 -4 10 -19 -12 -47 19 -44 48 1
15 -2 27 -8 27 -6 0 -8 3 -5 7 4 3 2 12 -4 20 -8 9 -8 13 -1 13 6 0 15 -7 20
-16 8 -15 10 -15 15 0 4 10 3 14 -3 11 -5 -3 -14 3 -19 13 -8 15 -6 23 9 37
22 20 26 35 9 35 -5 0 -8 -3 -6 -7 3 -5 -1 -14 -9 -20 -7 -7 -15 -9 -19 -4 -3
5 -1 13 5 16 8 5 7 12 -2 22 -11 14 -10 15 12 9 17 -5 21 -4 11 2 -8 6 -11 17
-8 26 4 11 0 19 -10 23 -13 5 -12 8 8 16 13 6 27 9 32 9 4 -1 7 3 7 9 0 6 -9
8 -20 4 -11 -4 -20 -2 -20 4 0 6 5 11 12 11 6 0 4 6 -7 13 -12 10 -14 16 -7
21 7 4 12 2 12 -3 0 -6 5 -11 11 -11 8 0 7 7 -2 21 -8 11 -18 20 -23 19 -5 -1
-13 4 -18 12 -8 10 -9 10 -5 -2 2 -8 10 -14 16 -13 13 3 15 -13 3 -21 -4 -2
-12 -2 -18 2 -13 9 -12 296 1 300 5 2 11 -2 14 -9 2 -8 -1 -9 -10 -3 -11 6
-12 5 -2 -8 7 -8 10 -18 6 -21 -3 -4 -1 -7 5 -7 7 0 12 5 12 11 0 5 6 7 13 3
9 -6 9 -4 -1 8 -7 8 -10 23 -6 32 3 9 1 16 -6 16 -6 0 -8 5 -5 10 4 6 11 7 17
4 6 -4 5 2 -1 15 -7 12 -9 27 -5 33 4 6 -1 17 -11 25 -17 12 -17 13 -2 13 20
0 22 11 5 28 -9 9 -9 12 1 12 8 0 11 6 7 16 -4 9 -1 24 6 32 9 11 9 14 1 9
-14 -9 -14 32 0 50 6 8 6 13 0 13 -13 0 -13 32 0 48 8 10 7 16 -4 23 -23 14
-38 10 -36 -10 0 -11 5 -17 9 -15 5 3 6 10 3 15 -4 5 -2 9 4 9 17 0 23 -20 7
-26 -8 -3 -17 -12 -20 -19 -3 -8 0 -12 7 -9 8 2 13 -4 14 -17 2 -16 -1 -18
-12 -9 -10 9 -13 8 -11 -5 1 -9 9 -21 17 -26 9 -5 10 -9 2 -9 -7 0 -10 -10 -7
-26 3 -19 1 -24 -8 -18 -10 6 -10 5 -2 -7 6 -8 9 -23 7 -34 -2 -11 -5 -26 -5
-32 -1 -7 -5 -13 -9 -13 -10 0 -6 91 4 108 5 6 4 12 -1 12 -4 0 -8 54 -8 120
0 103 2 120 15 115 9 -3 12 -3 8 1 -4 4 1 13 11 21 14 10 14 12 1 8 -10 -4
-16 0 -16 10 0 10 6 13 17 10 11 -3 16 1 17 15 1 11 -3 20 -8 20 -6 0 -7 -4
-4 -10 3 -5 -1 -10 -10 -10 -9 0 -13 5 -10 10 3 6 2 10 -4 10 -5 0 -8 -16 -7
-35 2 -19 0 -35 -4 -35 -4 0 -7 36 -7 80 0 44 2 80 6 80 3 0 13 -5 21 -11 13
-9 12 -10 -2 -5 -10 3 -18 1 -18 -5 0 -6 7 -9 16 -7 8 2 14 7 14 12 -1 5 4 13
12 18 9 6 6 7 -9 3 -18 -5 -22 -3 -17 9 3 9 1 16 -6 16 -6 0 -8 -4 -5 -10 3
-5 2 -10 -3 -10 -6 0 -10 16 -10 35 0 19 4 35 8 35 4 0 7 -7 6 -16 -2 -26 18
-27 45 -4 l24 22 -25 -16 c-28 -18 -40 -20 -40 -6 0 6 6 10 14 10 8 0 18 5 22
11 4 7 0 9 -13 5 -14 -4 -20 -2 -20 9 0 9 6 14 13 11 8 -3 11 0 7 10 -3 7 -9
14 -14 14 -5 0 -9 5 -9 11 0 5 5 7 12 3 7 -4 8 -3 4 5 -4 6 0 14 9 18 15 5 15
7 2 15 -9 4 -14 17 -12 28 2 11 0 18 -6 15 -5 -4 -9 -1 -9 4 0 6 5 11 12 11 6
0 9 2 6 5 -3 3 -13 3 -22 -1 -13 -5 -14 -9 -5 -20 9 -11 8 -14 -2 -14 -11 -1
-11 -3 1 -13 16 -13 19 -25 8 -42 -3 -5 -5 -22 -3 -37 2 -16 0 -28 -5 -28 -7
0 -10 40 -12 147 -1 23 -5 40 -10 37 -4 -3 -8 -1 -8 4 0 6 7 13 16 16 22 9 24
8 18 -8 -3 -8 -1 -17 5 -21 7 -3 8 0 5 9 -4 11 0 16 11 16 10 0 13 -5 9 -12
-4 -7 -3 -8 4 -4 18 11 15 16 -18 27 -16 6 -27 15 -24 20 3 5 9 7 13 5 4 -3 8
1 8 9 0 13 -4 12 -19 -2 -22 -20 -28 -15 -31 23 -1 19 2 28 11 27 6 -2 12 2
12 8 0 6 -9 8 -21 4 -14 -5 -19 -3 -15 3 3 6 2 13 -2 16 -16 10 -8 51 10 51 9
0 20 3 23 7 4 4 -7 5 -24 3 -21 -3 -31 0 -31 9 0 9 10 13 29 11 23 -2 28 1 23
13 -4 11 -7 12 -10 3 -3 -9 -9 -8 -23 5 -10 9 -19 22 -19 28 0 6 5 5 12 -2 7
-7 16 -12 20 -12 4 0 -1 9 -12 20 -22 22 -28 56 -7 44 6 -4 9 -4 5 1 -4 4 -2
15 4 24 9 11 5 10 -9 -2 -22 -19 -27 -67 -10 -94 5 -8 4 -13 -3 -13 -14 0 -28
38 -25 67 1 12 -1 20 -5 18 -5 -3 -10 1 -13 9 -4 9 0 12 13 9 10 -3 21 1 25 7
5 8 2 10 -11 6 -11 -3 -24 -2 -30 2 -20 12 -55 90 -44 97 6 3 10 1 10 -4 0 -6
8 -11 18 -11 16 1 16 1 -1 11 -9 6 -14 16 -11 22 4 7 4 9 -1 5 -4 -4 -15 -2
-24 5 -14 11 -14 10 -2 -5 7 -10 9 -18 4 -18 -9 0 -37 50 -33 58 1 2 -6 9 -16
16 -13 10 -14 17 -5 33 8 17 7 26 -10 47 -11 14 -24 26 -29 26 -5 0 2 -11 15
-24 23 -23 26 -64 4 -51 -4 3 -6 12 -2 21 3 8 2 14 -3 12 -5 -2 -9 -1 -10 2 0
3 -14 20 -31 39 -54 58 -63 71 -53 71 6 0 10 4 10 9 0 5 -9 7 -19 4 -22 -6
-57 39 -45 58 4 8 3 9 -4 5 -6 -4 -21 -2 -33 4 -16 9 -19 17 -14 38 6 26 6 26
-10 7 -16 -20 -16 -20 -12 3 3 12 2 20 -3 17 -4 -3 -13 2 -20 10 -12 14 -7 19
13 16 5 -1 6 3 2 9 -5 8 -11 8 -19 1 -7 -6 -17 -7 -22 -3 -5 4 2 -6 16 -22 14
-16 18 -25 10 -21 -8 5 -21 17 -28 27 -7 10 -17 16 -22 13 -4 -3 -14 2 -21 11
-10 13 -10 17 2 25 10 7 5 8 -14 3 -23 -5 -29 -3 -34 15 -3 11 -10 21 -15 21
-5 0 -6 -5 -2 -12 4 -7 -7 -2 -24 11 -18 12 -30 27 -27 32 4 5 1 9 -4 9 -6 0
-11 -6 -11 -12 -1 -9 -5 -7 -13 3 -12 16 -18 19 -38 19 -5 0 -7 5 -3 12 4 7 3
8 -4 4 -19 -11 -77 28 -66 45 2 4 0 10 -5 14 -6 3 -8 -3 -6 -15 4 -19 2 -19
-24 -5 -16 8 -31 11 -35 8 -3 -4 -6 -2 -6 3 0 5 -10 11 -22 11 -13 1 -28 10
-35 19 -8 10 -13 13 -13 6 0 -9 -5 -10 -19 -3 -10 6 -21 7 -25 4 -3 -3 -6 -2
-6 3 0 5 -10 10 -22 10 -13 1 -70 8 -128 17 -92 14 -345 15 -2075 15 -1083 0
-2004 -5 -2045 -9z m5310 -1955 c0 -4 -7 -12 -15 -18 -11 -8 -12 -15 -4 -26 9
-12 10 -11 4 5 -5 16 -4 17 6 8 9 -9 9 -16 1 -26 -9 -10 -8 -17 1 -26 10 -11
8 -11 -9 -1 -14 9 -21 23 -21 46 0 18 4 31 9 28 4 -3 8 0 8 5 0 6 5 11 10 11
6 0 10 -3 10 -6z m0 -824 c-12 -22 -21 -26 -17 -7 2 10 17 26 25 27 1 0 -2 -9
-8 -20z m0 -735 c-7 -9 -15 -13 -19 -10 -3 3 1 10 9 15 21 14 24 12 10 -5z m2
-78 c-7 -8 -10 -17 -7 -20 3 -4 2 -4 -2 -1 -11 8 -10 28 1 36 16 10 20 0 8
-15z m1 -143 c3 -3 3 -13 0 -21 -5 -12 -7 -12 -14 -1 -15 23 -4 40 14 22z m25
-227 c20 8 7 -14 -17 -26 -14 -8 -17 -5 -17 15 0 15 4 20 9 15 5 -5 16 -7 25
-4z m-23 -96 c3 -5 2 -12 -3 -15 -5 -3 -9 1 -9 9 0 17 3 19 12 6z m25 -141
c-8 -5 -19 -10 -25 -10 -5 0 -3 5 5 10 8 5 20 10 25 10 6 0 3 -5 -5 -10z m1
-157 c-11 -5 -11 -7 0 -15 11 -8 11 -9 -2 -5 -9 3 -22 0 -29 -6 -10 -10 -10
-7 -1 11 6 12 19 22 29 21 12 0 13 -2 3 -6z m9 -82 c0 -6 -4 -13 -10 -16 -5
-3 -10 1 -10 9 0 9 5 16 10 16 6 0 10 -4 10 -9z m-10 -300 c0 7 3 10 6 7 3 -4
0 -16 -6 -28 -8 -15 -8 -25 0 -34 13 -17 -11 -29 -37 -19 -10 3 -15 3 -11 -2
4 -4 3 -17 -3 -28 -9 -15 -8 -18 2 -12 8 6 10 4 4 -5 -5 -8 -4 -11 3 -6 16 10
26 -13 12 -29 -9 -10 -7 -16 7 -24 13 -7 14 -10 4 -11 -10 0 -7 -8 9 -25 17
-18 19 -25 9 -26 -10 0 -10 -2 -1 -6 6 -2 10 -9 6 -14 -3 -5 -12 -2 -20 6 -9
8 -21 15 -27 15 -7 -1 -2 -9 11 -20 13 -11 30 -16 40 -13 11 4 6 -6 -12 -25
-20 -21 -25 -32 -15 -32 10 -1 9 -4 -4 -11 -14 -8 -16 -14 -7 -24 7 -8 9 -19
6 -24 -4 -6 4 -8 20 -5 23 4 25 3 15 -10 -7 -8 -19 -12 -26 -10 -9 4 -12 -1
-11 -13 2 -10 -3 -26 -10 -37 -11 -15 -10 -21 2 -33 11 -11 12 -19 4 -28 -8
-9 -8 -15 0 -20 6 -3 8 -11 5 -16 -4 -5 -1 -9 6 -9 8 0 8 -4 -1 -15 -9 -10 -9
-15 -1 -15 13 0 11 -22 -3 -32 -15 -11 -16 -39 0 -45 10 -4 11 -10 3 -24 -12
-23 -26 -25 -26 -4 0 8 4 15 9 15 5 0 2 7 -7 16 -13 14 -19 14 -28 4 -9 -10
-9 -11 3 -5 8 5 12 5 8 0 -4 -4 -3 -14 3 -22 8 -9 8 -13 1 -13 -6 0 -9 -9 -7
-19 3 -15 -1 -18 -13 -14 -9 3 -14 3 -11 -1 11 -12 48 -15 55 -4 4 6 2 8 -4 4
-6 -3 -13 -2 -17 4 -3 5 1 10 9 10 24 0 26 -14 8 -46 -10 -16 -17 -41 -17 -56
1 -15 -2 -25 -6 -22 -4 2 -9 -2 -12 -8 -2 -7 -8 -10 -12 -6 -5 5 0 17 10 28
20 23 20 25 -14 35 -17 5 -21 4 -16 -5 6 -9 3 -9 -14 0 -13 7 -19 16 -14 23 4
7 8 20 9 30 1 9 3 19 4 22 1 3 4 10 5 15 1 6 4 13 5 18 1 4 2 11 1 15 -1 5 3
6 7 3 5 -3 10 9 10 27 1 32 8 90 12 95 1 1 3 6 4 11 0 5 4 13 9 17 12 12 8 26
-5 17 -7 -4 -5 5 5 20 22 33 22 43 0 26 -14 -12 -16 -12 -8 1 5 8 9 37 10 65
0 27 4 56 8 63 5 6 4 12 0 12 -5 0 -9 10 -10 23 0 12 1 16 4 10 3 -9 10 -10
22 -3 10 5 22 6 26 2 5 -4 5 -2 1 5 -4 7 -13 10 -21 6 -8 -3 -15 0 -15 7 0 6
-3 9 -8 6 -4 -2 -7 22 -7 54 0 32 1 57 4 55 4 -5 31 21 31 29 0 9 -24 2 -31
-8 -4 -5 -6 7 -5 27 0 19 4 39 8 43 4 4 2 14 -5 22 -10 12 -9 16 1 20 10 3 10
7 2 18 -13 15 -4 38 11 29 5 -4 9 0 9 7 1 7 9 3 20 -11 11 -13 20 -17 20 -10z
m5 -101 c-3 -5 -13 -7 -23 -4 -14 5 -14 4 -3 -4 8 -6 21 -7 30 -4 14 5 14 4 1
-13 -9 -11 -10 -16 -2 -11 6 4 12 3 12 -3 0 -23 -18 -18 -38 9 -27 35 -27 37
-4 43 21 4 34 -2 27 -13z m5 -274 c0 -3 -4 -8 -10 -11 -5 -3 -10 -1 -10 4 0 6
5 11 10 11 6 0 10 -2 10 -4z m-177 -712 c13 -5 12 -9 -6 -27 -12 -12 -25 -22
-29 -22 -3 0 -10 -4 -15 -8 -4 -5 -3 -8 2 -7 25 5 24 -2 -5 -26 -22 -19 -28
-29 -19 -34 8 -6 6 -11 -9 -19 -19 -10 -20 -9 -17 11 3 13 15 30 27 40 13 9
19 20 15 24 -4 4 -7 2 -7 -4 0 -7 -4 -12 -10 -12 -18 0 -10 15 19 35 16 10 27
23 25 27 -5 8 3 28 11 28 2 0 10 -3 18 -6z m-143 -214 c0 -4 -6 -12 -12 -18
-10 -8 -13 -5 -13 13 0 14 5 21 13 18 6 -3 12 -9 12 -13z m-5829 -29 c7 11 9
11 9 1 0 -7 4 -11 9 -7 5 3 12 1 16 -4 3 -6 -3 -15 -14 -21 -18 -9 -20 -8 -14
7 6 15 4 16 -9 5 -18 -15 -34 0 -22 20 6 9 9 9 12 -1 4 -11 6 -11 13 0z m5679
-11 c0 -5 -7 -13 -16 -18 -11 -6 -13 -12 -6 -16 6 -4 18 6 27 21 9 15 14 20
11 11 -7 -22 -3 -22 36 -2 16 9 27 11 24 6 -3 -6 0 -13 6 -16 7 -3 2 -4 -12
-1 -14 3 -19 2 -12 -1 6 -3 10 -10 7 -14 -3 -5 0 -12 6 -16 8 -4 9 -3 5 4 -4
7 -2 12 3 12 19 0 12 -19 -10 -31 -15 -8 -19 -8 -15 0 4 6 3 11 -2 11 -14 0
-33 -26 -25 -33 3 -4 1 -7 -6 -7 -7 0 -10 -4 -7 -9 3 -5 -1 -14 -9 -21 -12
-10 -15 -10 -15 0 0 10 -3 10 -15 0 -8 -6 -14 -15 -13 -18 2 -20 -3 -32 -11
-27 -5 3 -12 1 -16 -4 -3 -6 -13 -7 -22 -4 -12 5 -14 3 -8 -8 4 -8 5 -11 0 -7
-4 4 -17 2 -29 -4 -17 -8 -19 -8 -9 2 6 7 9 18 7 25 -3 7 -1 16 5 20 6 3 11
11 11 17 0 7 -4 7 -13 0 -8 -7 -18 -8 -27 -1 -13 8 -12 12 5 24 11 9 32 27 48
41 15 14 24 19 21 11 -4 -10 1 -15 13 -14 26 3 37 25 21 44 -7 9 -8 14 -2 10
7 -4 14 0 18 8 6 16 26 21 26 5z m-5570 -75 c6 0 9 -4 8 -10 -2 -5 -7 -9 -11
-7 -5 1 -6 -8 -2 -20 4 -16 3 -19 -3 -10 -5 8 -12 13 -16 12 -4 0 -14 6 -22
15 -9 9 -11 15 -4 15 6 0 8 5 4 12 -5 7 -3 8 6 3 10 -6 12 -3 7 11 -7 18 -6
18 8 -1 9 -11 20 -20 25 -20z m148 -104 c13 -7 20 -17 16 -23 -5 -7 -2 -9 9
-5 16 6 43 -24 31 -35 -3 -3 2 -8 11 -11 18 -8 20 13 3 33 -11 12 -10 12 5 1
21 -17 22 -35 2 -51 -13 -11 -20 -9 -39 9 -12 11 -25 18 -29 15 -7 -8 -37 14
-37 27 0 4 8 6 18 4 11 -2 19 3 19 11 0 15 -13 19 -20 7 -2 -5 -2 -3 -1 4 3
14 -23 25 -31 13 -4 -6 -1 -10 5 -10 7 0 10 -5 8 -11 -5 -15 -23 -12 -22 4 1
22 17 49 23 39 3 -5 16 -14 29 -21z m5223 -21 c1 -5 2 -15 3 -22 0 -6 8 -13
16 -15 13 -4 13 -3 0 7 -10 8 -11 10 -2 8 17 -4 16 -23 -1 -23 -6 0 -19 -4
-27 -9 -12 -7 -12 -6 -3 4 8 8 9 20 3 36 -6 15 -6 24 0 24 6 0 11 -4 11 -10z
m24 0 c3 -5 1 -10 -4 -10 -6 0 -11 5 -11 10 0 6 2 10 4 10 3 0 8 -4 11 -10z
m-71 -90 c-6 -6 -10 -3 -10 10 0 13 4 16 10 10 7 -7 7 -13 0 -20z m-4953 -10
c6 0 7 4 4 10 -4 6 1 7 11 3 11 -4 13 -8 6 -11 -7 -2 -9 -9 -6 -14 5 -7 2 -8
-6 -3 -10 6 -12 4 -6 -11 16 -40 19 -50 8 -36 -5 8 -12 13 -16 12 -13 -4 -66
22 -66 32 0 5 4 7 9 3 5 -3 12 -1 16 5 8 13 25 3 25 -13 0 -7 -4 -6 -10 3 -6
9 -10 10 -10 3 0 -6 5 -15 10 -18 15 -9 25 24 11 38 -6 6 -11 16 -11 22 0 5 5
2 11 -7 5 -10 15 -18 20 -18z m51 -7 c-6 -2 -9 -9 -6 -14 3 -6 12 -5 22 3 12
10 14 10 8 1 -4 -7 -2 -13 3 -13 6 0 11 5 11 12 0 6 3 8 7 4 5 -4 0 -14 -10
-21 -11 -7 -14 -16 -8 -19 5 -4 16 3 24 15 10 13 17 17 22 10 3 -6 12 -8 18
-5 8 5 8 3 0 -7 -19 -20 -16 -34 4 -18 11 10 14 10 9 2 -4 -8 -2 -13 5 -13 6
0 9 8 6 19 -3 13 -1 18 9 14 7 -2 10 -12 7 -21 -5 -14 -2 -13 17 3 21 18 21
16 -4 -17 -24 -32 -30 -36 -47 -25 -10 6 -19 15 -19 19 0 5 -5 8 -11 8 -5 0
-8 -4 -4 -9 3 -5 1 -12 -5 -16 -6 -3 -13 1 -16 9 -3 9 -10 14 -14 11 -5 -3
-11 -1 -15 5 -4 6 -10 8 -15 5 -5 -3 -14 4 -20 15 -7 13 -7 20 0 20 5 0 9 3 9
8 -3 15 1 22 14 21 9 0 9 -2 -1 -6z m4848 -10 c0 -6 -48 -27 -67 -29 -25 -2
-29 6 -13 22 9 9 80 15 80 7z m-106 -55 c-9 -15 -22 -8 -19 10 2 9 4 19 4 22
1 3 5 -2 10 -10 6 -8 7 -18 5 -22z m-4448 -13 c-4 -20 -1 -25 16 -25 17 0 18
2 8 15 -7 9 -10 18 -6 22 3 3 6 1 6 -6 0 -7 5 -9 10 -6 6 4 7 12 3 18 -4 7 5
4 19 -5 15 -10 29 -14 32 -9 3 5 17 9 32 9 14 0 22 -3 18 -7 -11 -8 -14 -41
-4 -41 4 0 11 12 15 27 6 24 8 26 16 10 6 -9 7 -22 4 -27 -9 -15 25 -24 38
-11 9 9 8 11 -4 6 -13 -5 -16 0 -16 19 0 14 4 26 10 26 6 0 7 -3 4 -7 -9 -9
12 -33 29 -33 8 0 14 4 14 10 0 5 -5 9 -11 7 -6 -1 -13 4 -14 11 -2 7 -1 8 2
2 3 -8 9 -7 19 1 11 9 18 9 29 -1 8 -7 12 -16 9 -21 -3 -5 2 -12 11 -15 11 -5
13 -10 5 -19 -7 -8 -7 -16 -2 -19 6 -3 15 1 22 9 10 12 16 13 26 4 23 -19 16
-4 -8 17 -13 12 -18 13 -13 4 8 -13 7 -13 -9 -1 -9 8 -15 20 -12 28 3 7 0 13
-6 13 -6 0 -8 3 -5 6 4 4 13 2 21 -5 11 -9 15 -9 20 1 3 7 3 2 -1 -12 -5 -22
-4 -23 10 -11 9 7 14 17 11 22 -3 5 0 9 6 9 7 0 10 -7 7 -15 -4 -8 -2 -17 3
-20 9 -5 14 6 12 25 0 3 17 5 38 5 21 0 36 -3 34 -7 -3 -5 0 -8 6 -8 6 0 8 -4
5 -10 -3 -5 -1 -10 6 -10 6 0 9 8 7 18 -3 11 0 19 7 19 10 0 11 -7 5 -23 -7
-18 -6 -22 5 -17 8 3 12 10 8 16 -3 6 -1 7 6 3 6 -4 8 -13 5 -19 -5 -9 -3 -9
6 0 10 9 10 16 2 26 -9 11 -8 14 3 14 8 0 12 -4 9 -9 -3 -4 0 -8 5 -8 6 0 10
-6 9 -12 -2 -9 7 -12 27 -10 37 4 41 8 27 25 -9 10 -8 14 3 14 8 0 12 -4 9 -9
-3 -4 0 -8 6 -8 6 0 8 -4 5 -10 -3 -5 -1 -10 6 -10 6 0 9 8 7 18 -3 11 0 19 7
19 10 0 11 -7 5 -23 -7 -18 -6 -22 5 -17 8 3 12 10 8 16 -3 6 -1 7 6 3 6 -4 8
-13 5 -19 -5 -9 -3 -9 6 0 10 9 10 16 2 26 -9 11 -8 14 3 14 8 0 12 -4 9 -9
-3 -4 0 -8 6 -8 6 0 8 -4 5 -10 -3 -5 -1 -10 6 -10 6 0 9 8 7 18 -3 11 0 19 7
19 10 0 11 -7 5 -23 -7 -18 -6 -22 5 -17 8 3 13 9 10 13 -6 10 21 7 31 -3 11
-11 34 -8 34 3 0 6 -5 9 -11 8 -6 -2 -14 4 -16 12 -4 12 -3 12 5 1 6 -8 12 -9
16 -3 15 24 52 7 47 -21 -1 -5 4 -7 11 -4 7 2 12 11 10 21 -2 9 3 16 9 16 7 0
9 -3 6 -7 -9 -9 12 -33 29 -33 8 0 14 4 14 10 0 5 -5 9 -11 7 -6 -1 -14 5 -16
13 -4 12 -3 12 5 1 6 -8 12 -9 16 -3 3 6 15 10 26 9 20 -1 34 -22 24 -38 -8
-14 26 -23 39 -10 9 9 8 11 -4 6 -13 -5 -16 0 -16 19 0 14 4 26 10 26 6 0 7
-3 4 -7 -9 -9 12 -33 29 -33 8 0 14 4 14 10 0 5 -5 9 -11 7 -6 -1 -13 4 -15
11 -1 7 0 8 3 2 3 -8 9 -7 19 1 11 9 18 9 29 -1 8 -7 12 -16 10 -21 -3 -4 4
-13 15 -19 11 -6 18 -16 14 -22 -4 -7 -10 -6 -16 3 -8 11 -9 11 -6 1 4 -17 11
-16 48 6 16 11 27 22 22 27 -4 5 -2 5 5 1 6 -3 14 1 17 12 7 20 42 27 52 10 4
-6 10 -5 16 3 8 11 9 11 5 -1 -2 -8 -10 -14 -16 -13 -6 2 -11 -1 -11 -6 0 -5
13 -11 29 -13 20 -3 28 -1 23 6 -10 17 -11 36 -1 36 8 0 13 -15 10 -32 -1 -10
3 -10 23 -2 15 6 15 7 1 18 -15 10 -14 12 3 12 14 0 19 -6 16 -19 -2 -15 2
-18 24 -15 20 2 26 8 25 23 -1 11 0 14 3 7 5 -10 9 -10 22 0 12 10 14 10 8 1
-4 -8 -2 -13 4 -13 6 0 8 -5 5 -10 -3 -5 -1 -10 6 -10 6 0 9 8 7 18 -3 11 0
19 7 19 10 0 11 -7 5 -23 -7 -18 -6 -22 5 -17 8 3 12 10 8 16 -3 6 -1 7 6 3 6
-4 8 -13 5 -19 -5 -9 -3 -9 6 0 10 9 10 16 2 26 -9 11 -8 14 3 14 8 0 12 -4 9
-9 -3 -4 0 -8 5 -8 6 0 10 -6 8 -12 -1 -9 8 -12 28 -10 37 4 41 8 27 25 -9 10
-8 14 3 14 8 0 12 -4 9 -9 -3 -4 0 -8 6 -8 6 0 8 -4 5 -10 -3 -5 -1 -10 6 -10
6 0 9 8 7 18 -3 11 0 19 7 19 10 0 11 -7 5 -23 -7 -18 -6 -22 5 -17 8 3 12 10
8 16 -3 6 -1 7 6 3 6 -4 8 -13 5 -19 -5 -9 -3 -9 6 0 10 9 10 16 2 26 -9 11
-8 14 3 14 8 0 12 -4 9 -9 -3 -4 0 -8 6 -8 6 0 8 -5 5 -10 -3 -5 -1 -10 6 -10
6 0 9 8 7 18 -3 11 0 19 7 19 10 0 11 -7 5 -23 -7 -18 -6 -22 5 -17 8 3 12 10
8 16 -3 6 -1 7 6 3 6 -4 8 -13 5 -19 -5 -9 -3 -9 6 0 10 9 10 16 2 26 -9 11
-6 13 18 13 28 0 46 -18 34 -37 -8 -14 26 -23 39 -10 9 9 8 11 -4 6 -13 -5
-16 0 -16 19 0 14 4 26 10 26 6 0 7 -3 4 -7 -9 -9 12 -33 29 -33 8 0 14 5 14
10 0 6 -5 9 -11 8 -6 -2 -13 3 -14 10 -2 7 -1 8 2 2 3 -8 9 -7 19 1 11 9 18 9
29 -1 8 -7 12 -16 9 -21 -3 -5 2 -12 11 -15 11 -5 13 -10 5 -19 -7 -8 -7 -16
-2 -19 6 -3 15 1 22 9 10 12 16 13 26 4 23 -19 16 -4 -8 17 -13 12 -18 13 -13
4 8 -13 7 -13 -9 -1 -9 8 -15 20 -12 28 3 7 0 13 -6 13 -6 0 -8 3 -5 6 4 4 13
2 21 -5 11 -9 15 -9 20 1 3 7 3 2 -1 -12 -5 -22 -4 -23 10 -11 9 7 14 17 11
22 -3 5 0 9 6 9 7 0 10 -7 7 -15 -4 -8 -2 -17 3 -20 9 -5 13 5 12 25 0 3 24 5
54 6 52 0 73 -13 58 -37 -3 -5 0 -9 5 -9 11 0 15 13 12 38 -1 6 4 12 10 12 7
0 9 -3 6 -7 -9 -9 12 -33 29 -33 8 0 14 5 14 10 0 6 -5 9 -11 8 -6 -2 -13 3
-14 10 -2 7 -1 8 2 2 3 -8 9 -7 19 1 11 9 18 9 29 -1 8 -7 12 -16 9 -21 -3 -5
2 -12 11 -15 11 -5 13 -10 5 -19 -7 -8 -7 -16 -2 -19 6 -3 15 1 22 9 10 12 16
13 26 4 23 -19 16 -4 -8 17 -13 12 -18 13 -13 4 8 -13 7 -13 -9 -1 -9 8 -15
20 -12 28 3 7 0 13 -6 13 -6 0 -8 3 -5 6 4 4 13 2 21 -5 11 -9 15 -9 20 1 3 7
3 2 -1 -12 -5 -22 -4 -23 10 -11 9 7 14 17 11 22 -3 5 0 9 6 9 7 0 10 -7 7
-15 -4 -8 -2 -17 3 -20 9 -5 13 6 12 25 0 3 15 6 34 6 18 0 32 -2 29 -4 -8 -8
16 -32 31 -32 8 0 14 5 14 10 0 6 -5 9 -11 8 -6 -2 -14 4 -16 12 -4 12 -3 12
5 1 6 -8 12 -9 16 -3 15 24 52 7 47 -21 -3 -16 34 -1 46 18 8 12 12 15 13 6 0
-11 3 -11 15 -1 9 7 18 10 22 6 3 -3 2 -6 -3 -6 -5 0 -10 -9 -10 -20 0 -29 13
-25 21 7 6 24 8 26 16 10 6 -9 7 -22 4 -27 -9 -15 25 -24 38 -11 9 9 8 11 -4
6 -13 -5 -16 0 -16 19 0 14 4 26 10 26 6 0 7 -3 4 -7 -9 -9 12 -33 29 -33 8 0
14 5 14 10 0 6 -5 9 -11 8 -6 -2 -14 4 -16 12 -4 12 -3 12 5 1 7 -9 12 -10 16
-2 4 6 13 11 19 11 9 0 9 -2 0 -8 -10 -6 -10 -12 2 -28 13 -16 14 -16 9 -2 -3
10 -1 18 4 18 6 0 9 -9 7 -19 -2 -13 1 -18 10 -15 16 6 29 -12 15 -21 -5 -3
-10 -1 -10 6 0 7 -3 10 -6 6 -3 -3 -3 -10 1 -16 7 -12 65 26 65 42 0 5 -6 4
-14 -2 -10 -8 -16 -9 -21 -1 -3 6 -11 8 -16 5 -5 -4 -9 -1 -9 4 0 6 6 11 14
11 8 0 17 6 20 13 3 6 3 1 -1 -13 -5 -22 -4 -23 10 -11 9 7 14 17 11 22 -3 5
-1 9 4 9 5 0 10 -12 10 -26 0 -14 3 -29 8 -34 10 -9 60 7 51 16 -3 3 -14 1
-24 -5 -17 -8 -19 -6 -19 17 0 20 5 28 18 28 18 0 18 -1 2 -13 -10 -7 -14 -16
-10 -20 4 -5 16 2 26 15 10 12 22 22 26 22 4 0 4 -3 1 -7 -9 -9 12 -33 29 -33
8 0 14 5 14 10 0 6 -5 9 -11 8 -6 -2 -14 4 -16 12 -4 12 -3 12 5 1 6 -8 12 -9
16 -3 14 23 51 7 47 -20 -2 -15 39 -2 45 14 5 17 7 16 27 -2 22 -21 47 -26 47
-10 0 6 -5 9 -11 8 -6 -2 -14 4 -16 12 -4 12 -3 12 5 1 6 -8 12 -9 16 -3 15
24 52 7 47 -21 -3 -16 34 -1 46 18 8 12 12 15 13 6 0 -11 3 -11 15 -1 9 7 18
10 22 6 3 -3 2 -6 -3 -6 -5 0 -10 -9 -10 -20 0 -29 13 -25 21 7 6 24 8 26 16
10 6 -9 7 -22 4 -27 -9 -15 25 -24 38 -11 9 9 8 11 -4 6 -13 -5 -16 0 -16 19
0 14 4 26 10 26 6 0 7 -3 4 -7 -9 -9 12 -33 29 -33 8 0 14 4 14 10 0 5 -5 9
-11 7 -6 -1 -14 5 -16 13 -4 12 -3 12 5 1 7 -9 12 -10 16 -2 4 6 13 11 19 11
9 0 9 -2 0 -8 -10 -6 -10 -12 2 -28 13 -16 14 -16 9 -2 -3 10 -1 18 4 18 6 0
9 -9 7 -19 -2 -13 1 -18 10 -15 16 6 29 -12 15 -21 -5 -3 -10 -1 -10 6 0 7 -3
10 -6 6 -3 -3 -3 -10 1 -16 7 -12 65 26 65 42 0 5 -6 4 -14 -2 -10 -8 -16 -9
-21 -1 -3 6 -11 8 -16 5 -5 -4 -9 -1 -9 4 0 6 6 11 14 11 8 0 17 6 20 13 3 6
3 1 -1 -13 -5 -22 -4 -23 10 -11 9 7 14 17 11 22 -3 5 -1 9 4 9 5 0 10 -12 10
-26 0 -14 3 -29 8 -34 10 -9 60 7 51 16 -3 3 -14 1 -24 -5 -17 -8 -19 -6 -19
17 0 20 5 28 18 28 18 0 18 -1 2 -13 -10 -7 -14 -16 -10 -20 4 -5 16 2 26 14
10 13 22 23 26 23 4 0 4 -3 1 -7 -9 -9 12 -33 29 -33 8 0 14 4 14 10 0 5 -5 9
-11 7 -6 -1 -14 5 -16 13 -4 12 -3 12 5 1 6 -8 12 -9 16 -3 14 23 51 7 47 -20
-2 -15 39 -2 45 14 5 17 7 16 27 -2 22 -21 47 -26 47 -10 0 5 -5 9 -11 7 -6
-1 -14 5 -16 13 -4 12 -3 12 5 1 6 -8 12 -9 16 -3 15 24 52 7 47 -21 -3 -16
34 -1 46 18 8 12 12 15 13 6 0 -11 3 -11 15 -1 9 7 18 10 22 6 3 -3 2 -6 -3
-6 -5 0 -10 -9 -10 -20 0 -29 13 -25 21 7 6 24 8 26 16 10 6 -9 7 -21 4 -27
-3 -5 4 -14 15 -20 11 -6 18 -16 14 -22 -4 -7 -13 -3 -23 10 -19 23 -69 24
-97 1 -10 -8 -15 -9 -11 -3 13 22 -23 24 -42 3 -12 -13 -21 -17 -26 -10 -3 6
-12 8 -18 5 -8 -4 -7 -2 1 7 11 12 14 12 23 -1 9 -13 10 -13 7 0 -3 8 -18 15
-38 16 -18 1 -27 -1 -21 -5 9 -6 8 -11 -4 -21 -13 -11 -15 -10 -9 4 7 19 -6
21 -25 4 -9 -8 -11 -8 -8 -2 12 22 -23 24 -42 3 -12 -13 -21 -17 -26 -10 -3 6
-12 8 -18 5 -8 -4 -7 -2 1 7 11 12 14 12 22 -1 6 -9 10 -10 10 -3 0 20 -18 24
-47 10 -15 -8 -41 -14 -56 -13 -16 1 -31 -2 -33 -6 -3 -5 -10 -6 -15 -2 -5 3
-17 0 -25 -7 -14 -11 -20 -9 -43 17 -14 16 -22 24 -17 16 14 -20 -15 -36 -30
-17 -13 17 -47 9 -38 -9 3 -6 -2 -2 -10 8 -9 11 -16 15 -16 10 0 -6 -7 -11
-15 -11 -8 0 -12 4 -10 8 10 16 -29 18 -53 3 -13 -9 -22 -12 -18 -6 12 20 -24
21 -43 1 -12 -13 -21 -17 -26 -10 -3 6 -12 8 -18 5 -8 -4 -7 -2 1 7 11 12 14
12 23 -1 9 -13 10 -13 7 0 -3 8 -18 15 -38 16 -18 1 -27 -1 -21 -5 9 -6 8 -11
-4 -21 -13 -11 -15 -10 -9 4 7 19 -6 21 -25 4 -9 -8 -11 -8 -8 -2 12 22 -23
24 -42 3 -12 -13 -21 -17 -26 -10 -3 6 -12 8 -18 5 -8 -4 -7 -2 1 7 11 12 14
12 22 -1 6 -9 10 -10 10 -3 0 20 -18 24 -47 10 -15 -8 -41 -14 -56 -13 -16 1
-31 -2 -33 -6 -3 -5 -10 -6 -15 -2 -5 3 -17 0 -25 -7 -14 -11 -20 -9 -43 17
-14 16 -22 24 -17 16 14 -20 -15 -36 -30 -17 -13 17 -47 9 -38 -9 3 -6 -2 -2
-10 8 -9 11 -16 15 -16 10 0 -6 -7 -11 -15 -11 -8 0 -12 4 -10 8 10 16 -29 18
-53 3 -13 -9 -22 -12 -18 -6 12 20 -24 21 -43 1 -12 -13 -21 -17 -26 -10 -3 6
-12 8 -18 5 -8 -4 -7 -2 1 7 11 12 14 12 23 -1 9 -13 10 -13 7 0 -3 8 -18 15
-38 16 -22 1 -28 -1 -19 -7 16 -10 15 -10 -23 -15 -16 -1 -28 2 -28 8 0 6 8 8
18 6 11 -3 19 0 19 8 0 20 -12 17 -45 -11 -16 -13 -32 -22 -35 -18 -4 3 -13 0
-22 -7 -12 -10 -18 -10 -30 0 -9 7 -14 19 -11 26 3 7 0 16 -6 20 -7 5 -8 2 -3
-7 7 -11 5 -11 -11 1 -18 14 -18 14 -5 -3 13 -16 13 -20 0 -28 -9 -6 -18 -4
-25 6 -13 17 -48 9 -37 -8 3 -6 1 -7 -6 -3 -6 4 -9 12 -6 17 4 5 1 9 -4 9 -6
0 -11 -3 -11 -8 0 -4 -22 -8 -50 -9 -27 0 -50 3 -50 8 0 4 14 7 31 7 19 -1 37
6 44 15 7 9 15 14 18 10 4 -3 7 -1 7 5 0 7 -2 12 -4 12 -2 0 -12 3 -20 6 -12
4 -15 2 -10 -9 3 -10 -3 -20 -16 -27 -15 -8 -20 -8 -16 -1 12 20 -12 12 -42
-14 -16 -13 -32 -22 -35 -18 -4 3 -13 0 -22 -7 -12 -10 -18 -10 -30 0 -9 7
-14 19 -11 26 3 7 0 16 -6 20 -7 5 -8 2 -3 -7 7 -11 5 -11 -11 1 -18 14 -18
14 -5 -3 13 -16 13 -20 0 -28 -9 -6 -18 -4 -25 6 -13 17 -47 9 -38 -9 3 -6 -2
-2 -10 8 -9 11 -16 15 -16 10 0 -6 -7 -11 -15 -11 -8 0 -12 4 -9 9 3 4 0 8 -5
8 -6 0 -11 -4 -11 -10 0 -5 -5 -10 -11 -10 -5 0 -7 5 -4 10 6 10 2 12 -37 13
-15 0 -22 -4 -20 -14 3 -11 1 -12 -9 -2 -16 16 -33 17 -23 1 4 -7 3 -8 -5 -4
-6 4 -9 12 -6 17 3 5 -1 6 -9 3 -9 -3 -13 -11 -9 -18 3 -6 -3 -2 -15 8 -22 19
-22 19 -44 0 -12 -10 -18 -13 -14 -6 9 15 -10 16 -20 1 -4 -8 -9 -8 -17 0 -15
15 -30 14 -21 -1 4 -7 3 -8 -5 -4 -6 4 -9 12 -6 17 3 5 -1 6 -9 3 -9 -3 -13
-11 -9 -18 4 -7 2 -7 -7 1 -10 9 -19 9 -40 -2 -26 -13 -28 -13 -23 3 4 15 -4
17 -66 17 -39 0 -66 -1 -61 -3 25 -9 6 -19 -31 -18 -22 1 -43 -2 -45 -6 -3 -5
-10 -6 -15 -2 -5 3 -17 0 -25 -7 -14 -11 -20 -9 -43 17 -14 16 -22 24 -17 16
14 -20 -15 -36 -30 -17 -13 17 -47 9 -38 -9 3 -6 -2 -2 -10 8 -9 11 -16 15
-16 10 0 -6 -7 -11 -15 -11 -8 0 -12 4 -10 8 10 16 -29 18 -53 3 -13 -9 -22
-12 -18 -6 12 20 -24 21 -43 1 -12 -13 -21 -17 -26 -10 -3 6 -12 8 -18 5 -8
-4 -7 -2 1 7 11 12 14 12 22 -1 6 -9 10 -10 10 -3 0 21 -20 25 -47 8 -14 -9
-22 -12 -19 -6 7 11 3 13 -36 14 -15 0 -22 -4 -20 -14 3 -11 1 -12 -9 -1 -16
15 -33 16 -23 0 4 -7 3 -8 -5 -4 -6 4 -9 12 -6 17 3 5 -1 6 -9 3 -9 -3 -13
-11 -9 -18 3 -6 -3 -2 -15 8 -22 19 -22 19 -44 0 -12 -10 -18 -13 -14 -6 9 15
-10 16 -20 1 -4 -8 -9 -8 -17 0 -15 15 -30 14 -21 -1 4 -7 3 -8 -5 -4 -6 4 -9
12 -6 17 3 5 -1 6 -9 3 -9 -3 -13 -11 -9 -18 4 -6 0 -6 -9 2 -9 7 -19 9 -22 4
-8 -13 -56 -12 -56 0 0 6 8 8 18 6 11 -3 19 0 19 8 0 20 -12 17 -45 -11 -16
-13 -32 -22 -35 -18 -4 3 -13 0 -22 -7 -12 -10 -18 -10 -30 0 -9 7 -14 19 -11
26 3 7 0 16 -6 20 -7 5 -8 2 -3 -7 7 -11 5 -11 -11 1 -18 14 -18 14 -5 -3 13
-16 13 -20 0 -28 -9 -6 -18 -4 -25 6 -13 17 -47 9 -38 -9 3 -6 -1 -3 -9 7 -13
16 -15 16 -21 2 -3 -9 -10 -13 -16 -10 -6 4 -8 11 -5 16 4 5 1 9 -4 9 -6 0
-11 -4 -11 -9 0 -6 -9 -9 -20 -8 -11 1 -19 6 -18 12 2 19 -14 45 -25 38 -6 -3
-7 -1 -3 5 4 7 3 12 -3 12 -22 0 -21 -21 3 -31 15 -7 22 -17 19 -26 -5 -12 -7
-12 -14 -2 -4 7 -19 14 -32 14 -19 1 -24 -2 -20 -14 3 -12 2 -12 -7 2 -14 22
-21 57 -14 68 10 17 14 9 10 -16z m4390 6 c0 -16 -12 -20 -36 -11 -3 1 -9 2
-13 1 -5 -1 -5 3 -2 9 4 6 13 9 21 6 7 -3 16 -1 19 4 9 14 11 12 11 -9z
m-3823 -11 c-6 -21 -25 -28 -20 -7 2 10 16 26 24 27 0 0 -1 -9 -4 -20z m566
-26 c-9 -11 -15 -12 -25 -3 -18 15 -18 29 1 29 8 0 15 6 15 13 0 6 5 4 11 -6
8 -13 7 -22 -2 -33z m31 36 c0 -5 -2 -10 -4 -10 -3 0 -8 5 -11 10 -3 6 -1 10
4 10 6 0 11 -4 11 -10z m197 -5 c0 -8 -4 -12 -9 -9 -4 3 -8 9 -8 15 0 5 4 9 8
9 5 0 9 -7 9 -15z m166 -5 c-6 -21 -25 -28 -20 -7 2 10 16 26 24 27 0 0 -1 -9
-4 -20z m957 16 c0 -3 -4 -8 -10 -11 -5 -3 -10 -1 -10 4 0 6 5 11 10 11 6 0
10 -2 10 -4z m480 0 c0 -3 -4 -8 -10 -11 -5 -3 -10 -1 -10 4 0 6 5 11 10 11 6
0 10 -2 10 -4z m160 0 c0 -3 -4 -8 -10 -11 -5 -3 -10 -1 -10 4 0 6 5 11 10 11
6 0 10 -2 10 -4z m480 0 c0 -3 -4 -8 -10 -11 -5 -3 -10 -1 -10 4 0 6 5 11 10
11 6 0 10 -2 10 -4z m160 0 c0 -3 -4 -8 -10 -11 -5 -3 -10 -1 -10 4 0 6 5 11
10 11 6 0 10 -2 10 -4z m-3716 -68 c-3 -4 -9 -8 -15 -8 -5 0 -9 4 -9 8 0 5 7
9 15 9 8 0 12 -4 9 -9z m876 3 c0 -5 -7 -11 -14 -14 -10 -4 -13 -1 -9 9 6 15
23 19 23 5z m354 1 c3 -5 -1 -9 -9 -9 -8 0 -12 4 -9 9 3 4 7 8 9 8 2 0 6 -4 9
-8z m1246 -1 c0 -5 -7 -11 -14 -14 -10 -4 -13 -1 -9 9 6 15 23 19 23 5z m640
0 c0 -5 -7 -11 -14 -14 -10 -4 -13 -1 -9 9 6 15 23 19 23 5z m780 1 c0 -4 -9
-8 -20 -9 -11 -1 -20 2 -20 5 0 4 9 8 20 9 11 1 20 -2 20 -5z m30 -2 c0 -5 -5
-10 -11 -10 -5 0 -7 5 -4 10 3 6 8 10 11 10 2 0 4 -4 4 -10z m34 2 c3 -5 -1
-9 -9 -9 -8 0 -15 4 -15 9 0 4 4 8 9 8 6 0 12 -4 15 -8z m100 -3 c3 -3 -5 -5
-19 -5 -13 0 -22 3 -19 7 4 8 30 6 38 -2z"/>
<path d="M6750 1969 c6 -10 5 -20 -2 -27 -7 -7 -4 -13 10 -21 21 -11 42 2 22
14 -5 3 -10 11 -10 16 0 6 6 7 13 3 9 -6 9 -5 0 8 -7 8 -10 18 -7 21 4 3 -3 5
-14 4 -16 -1 -18 -5 -12 -18z m25 -39 c3 -6 -1 -7 -9 -4 -18 7 -21 14 -7 14 6
0 13 -4 16 -10z"/>
<path d="M6749 1809 c0 -2 -2 -12 -4 -21 -2 -11 3 -18 13 -18 13 0 13 -2 -3
-13 -17 -13 -16 -14 6 -11 13 1 26 3 28 3 2 1 -3 9 -12 19 -8 9 -16 21 -15 25
0 9 -11 23 -13 16z"/>
<path d="M6740 1726 c0 -2 8 -10 18 -17 15 -13 16 -12 3 4 -13 16 -21 21 -21
13z"/>
<path d="M6762 1671 c-7 -4 -12 -12 -11 -17 1 -5 0 -11 -1 -14 -1 -3 -4 -29
-5 -58 -3 -51 7 -74 21 -51 4 8 3 9 -4 5 -7 -4 -12 -2 -12 3 0 6 4 11 8 11 10
0 10 56 0 66 -4 4 -3 13 3 21 6 7 8 13 4 13 -4 0 -2 7 5 15 14 17 11 19 -8 6z"/>
<path d="M6744 1472 c4 -11 2 -23 -5 -27 -12 -8 6 -25 26 -25 6 0 4 4 -4 9
-11 7 -12 13 -4 23 8 10 7 17 -4 27 -13 12 -14 11 -9 -7z"/>
<path d="M6729 1418 c-8 -27 -5 -36 9 -31 14 4 13 2 -2 -11 -10 -8 -20 -27
-22 -41 -2 -21 0 -24 11 -15 8 7 19 9 25 5 6 -4 10 -3 9 2 -1 4 0 13 1 18 7
26 4 61 -5 67 -10 8 -24 10 -26 6z m27 -55 c-2 -9 -11 -17 -20 -19 -17 -2 -17
-2 0 17 21 23 23 23 20 2z"/>
<path d="M6710 1280 c0 -5 5 -10 10 -10 6 0 10 5 10 10 0 6 -4 10 -10 10 -5 0
-10 -4 -10 -10z"/>
<path d="M6693 1263 c4 -3 2 -12 -4 -20 -9 -9 -8 -13 0 -13 6 0 11 -5 11 -11
0 -5 -6 -7 -12 -3 -7 4 -10 4 -6 -1 4 -4 3 -14 -3 -22 -6 -7 -8 -13 -4 -13 4
0 13 7 19 15 8 11 15 12 26 4 12 -9 11 -10 -5 -4 -16 5 -18 4 -7 -6 10 -11 16
-10 30 5 9 11 13 17 7 14 -5 -3 -19 3 -29 13 -18 17 -18 19 -2 25 14 5 15 9 4
15 -15 10 -34 12 -25 2z"/>
<path d="M6344 604 c-16 -9 -32 -22 -37 -29 -4 -8 -14 -12 -21 -9 -13 5 -31
-24 -21 -34 3 -3 5 -1 5 5 0 6 9 9 20 6 26 -7 17 -20 -12 -18 -17 2 -22 8 -21
24 3 26 4 26 -36 -3 -18 -13 -28 -27 -22 -30 5 -4 12 -2 16 3 3 6 12 8 21 4
13 -5 13 -8 -2 -24 -10 -11 -14 -22 -11 -26 4 -3 7 -1 7 6 0 7 5 9 12 5 7 -4
8 -3 4 4 -3 6 3 16 15 22 17 10 20 9 13 -2 -5 -7 -9 -19 -10 -26 -2 -10 1 -11
12 -1 8 6 12 14 9 17 -3 3 4 12 15 19 11 8 18 18 15 23 -3 5 -1 11 5 15 6 4 8
11 5 16 -3 5 0 6 8 3 17 -6 64 30 50 39 -5 3 -23 -1 -39 -9z m36 1 c0 -2 -10
-9 -22 -15 -22 -11 -22 -10 -4 4 21 17 26 19 26 11z"/>
<path d="M6337 553 c-10 -9 -9 -23 1 -23 5 0 9 7 9 15 0 17 -1 18 -10 8z"/>
<path d="M740 554 c0 -8 5 -12 10 -9 6 4 8 11 5 16 -9 14 -15 11 -15 -7z"/>
<path d="M950 421 c0 -7 -4 -10 -8 -7 -4 2 -14 0 -22 -5 -13 -9 -13 -10 0 -6
8 2 26 -5 39 -17 13 -11 20 -14 15 -6 -4 8 -9 21 -10 28 -3 18 -14 29 -14 13z"/>
<path d="M1183 293 c0 -7 3 -11 5 -8 3 3 12 -1 21 -8 14 -10 14 -10 4 4 -7 9
-11 18 -8 21 3 2 -1 5 -8 5 -8 0 -14 -6 -14 -14z"/>
<path d="M1239 283 c-13 -15 -12 -15 9 -4 23 12 28 21 13 21 -5 0 -15 -7 -22
-17z"/>
<path d="M1280 264 c0 -1 6 -7 14 -13 10 -9 15 -8 19 2 3 8 -3 13 -14 13 -11
0 -19 -1 -19 -2z"/>
<path d="M5976 308 c3 -4 11 -5 19 -1 21 7 19 12 -4 10 -11 0 -18 -5 -15 -9z"/>
<path d="M1580 249 c-13 -8 -12 -11 3 -20 9 -6 14 -16 11 -22 -4 -7 -3 -9 1
-4 12 10 16 45 7 51 -4 3 -14 0 -22 -5z"/>
<path d="M1736 245 c4 -8 10 -12 15 -9 11 6 2 24 -11 24 -5 0 -7 -7 -4 -15z"/>
<path d="M1873 240 c-12 -14 -20 -16 -29 -9 -8 7 -14 7 -19 -1 -3 -5 1 -10 10
-10 10 0 13 -5 9 -12 -4 -6 8 0 27 14 28 22 36 24 46 13 10 -11 10 -15 0 -18
-7 -3 -2 -4 10 -4 18 1 20 4 10 17 -28 35 -41 37 -64 10z"/>
<path d="M2295 238 c1 -13 5 -22 8 -20 4 1 13 2 20 2 8 0 7 4 -3 10 -13 9 -13
10 0 10 13 0 13 1 0 10 -22 14 -27 12 -25 -12z"/>
<path d="M2414 243 c1 -19 24 -39 33 -29 4 3 1 6 -5 6 -7 0 -12 5 -12 11 0 5
5 7 10 4 6 -3 10 -2 10 3 0 6 -7 13 -16 16 -22 8 -22 8 -20 -11z"/>
<path d="M2539 242 c6 -12 17 -24 24 -28 7 -5 5 0 -3 11 -8 10 -14 21 -12 24
2 3 -2 7 -8 9 -9 3 -9 -1 -1 -16z"/>
<path d="M2685 252 c-17 -12 -61 -67 -45 -56 8 6 26 10 40 9 22 -1 26 2 25 27
0 29 -3 33 -20 20z m5 -25 c0 -8 -7 -14 -15 -14 -11 0 -12 4 -4 14 6 7 13 13
15 13 2 0 4 -6 4 -13z"/>
<path d="M3215 250 c4 -6 2 -16 -3 -23 -8 -9 -3 -12 16 -13 15 -1 21 1 15 3
-7 3 -13 9 -13 14 0 6 5 7 10 4 6 -3 10 -2 10 3 0 6 -7 13 -16 16 -22 8 -26 8
-19 -4z"/>
<path d="M3336 245 c4 -8 10 -12 15 -9 11 6 2 24 -11 24 -5 0 -7 -7 -4 -15z"/>
<path d="M3473 240 c-12 -14 -20 -16 -29 -9 -8 7 -14 7 -19 -1 -3 -5 1 -10 10
-10 10 0 13 -5 9 -12 -4 -6 9 1 28 16 26 19 37 23 41 14 2 -7 8 -9 13 -5 5 4
2 12 -6 17 -21 14 -28 12 -47 -10z"/>
<path d="M3656 245 c4 -8 10 -12 15 -9 11 6 2 24 -11 24 -5 0 -7 -7 -4 -15z"/>
<path d="M3793 240 c-12 -14 -20 -16 -29 -9 -8 7 -14 7 -19 -1 -3 -5 1 -10 10
-10 10 0 13 -5 9 -12 -4 -6 9 1 29 16 20 16 37 24 37 18 0 -5 8 -13 17 -16 15
-6 15 -4 -2 14 -23 25 -31 25 -52 0z"/>
<path d="M3895 238 c1 -13 5 -22 8 -20 4 1 13 2 20 2 8 0 7 4 -3 10 -13 9 -13
10 0 10 13 0 13 1 0 10 -22 14 -27 12 -25 -12z"/>
<path d="M4375 238 c1 -13 5 -22 8 -20 4 1 13 2 20 2 8 0 7 4 -3 10 -13 9 -13
10 0 10 13 0 13 1 0 10 -22 14 -27 12 -25 -12z"/>
<path d="M4535 238 c1 -13 5 -22 8 -20 4 1 13 2 20 2 8 0 7 4 -3 10 -13 9 -13
10 0 10 13 0 13 1 0 10 -22 14 -27 12 -25 -12z"/>
<path d="M5015 238 c1 -13 5 -22 8 -20 4 1 13 2 20 2 8 0 7 4 -3 10 -13 9 -13
10 0 10 13 0 13 1 0 10 -22 14 -27 12 -25 -12z"/>
<path d="M5175 238 c1 -13 5 -22 8 -20 4 1 13 2 20 2 8 0 7 4 -3 10 -13 9 -13
10 0 10 13 0 13 1 0 10 -22 14 -27 12 -25 -12z"/>
<path d="M2874 238 c-16 -25 -13 -38 6 -28 9 5 21 6 26 2 5 -4 2 2 -6 13 -8
11 -15 21 -16 23 -1 2 -6 -3 -10 -10z"/>
<path d="M3976 233 c-3 -8 -11 -11 -17 -7 -7 4 -9 3 -6 -4 7 -10 57 6 57 19 0
12 -29 5 -34 -8z"/>
<path d="M4310 240 c0 -5 5 -10 12 -10 6 0 3 -7 -8 -16 -18 -14 -18 -15 4 -4
19 9 21 14 11 26 -14 17 -19 18 -19 4z"/>
<path d="M4456 234 c-3 -8 -11 -12 -17 -8 -8 4 -9 3 -5 -5 6 -9 11 -9 22 0 7
6 21 9 29 5 21 -8 19 1 -4 13 -15 8 -20 7 -25 -5z"/>
<path d="M4616 233 c-3 -8 -11 -11 -17 -7 -7 4 -9 3 -6 -4 7 -10 57 6 57 19 0
12 -29 5 -34 -8z"/>
<path d="M4950 240 c0 -5 5 -10 12 -10 6 0 3 -7 -8 -16 -18 -14 -18 -15 4 -4
19 9 21 14 11 26 -14 17 -19 18 -19 4z"/>
<path d="M5096 234 c-3 -8 -11 -12 -17 -8 -8 4 -9 3 -5 -5 6 -9 11 -9 22 0 7
6 21 9 29 5 21 -8 19 1 -4 13 -15 8 -20 7 -25 -5z"/>
<path d="M5256 233 c-3 -8 -11 -11 -17 -7 -7 4 -9 3 -6 -4 7 -10 57 6 57 19 0
12 -29 5 -34 -8z"/>
<path d="M2236 231 c-4 -5 -2 -12 3 -15 5 -4 12 -2 15 3 4 5 2 12 -3 15 -5 4
-12 2 -15 -3z"/>
<path d="M2356 231 c-4 -5 -2 -12 3 -15 5 -4 12 -2 15 3 4 5 2 12 -3 15 -5 4
-12 2 -15 -3z"/>
<path d="M3604 232 c3 -5 0 -13 -6 -15 -9 -4 -10 -6 -1 -6 17 -1 25 16 12 25
-7 4 -9 3 -5 -4z"/>
<path d="M2006 221 c-4 -5 -2 -12 3 -15 5 -4 12 -2 15 3 4 5 2 12 -3 15 -5 4
-12 2 -15 -3z"/>
<path d="M2966 221 c-4 -5 -2 -12 3 -15 5 -4 12 -2 15 3 4 5 2 12 -3 15 -5 4
-12 2 -15 -3z"/>
<path d="M1718 213 c6 -2 9 -10 6 -15 -4 -7 -2 -8 5 -4 13 9 5 26 -12 25 -9 0
-8 -2 1 -6z"/>
<path d="M2518 213 c6 -2 9 -10 6 -15 -4 -7 -2 -8 5 -4 13 9 5 26 -12 25 -9 0
-8 -2 1 -6z"/>
<path d="M3318 213 c6 -2 9 -10 6 -15 -4 -7 -2 -8 5 -4 13 9 5 26 -12 25 -9 0
-8 -2 1 -6z"/>
<path d="M3545 210 c-3 -6 1 -7 9 -4 18 7 21 14 7 14 -6 0 -13 -4 -16 -10z"/>
<path d="M3638 213 c6 -2 9 -10 6 -15 -4 -7 -2 -8 5 -4 13 9 5 26 -12 25 -9 0
-8 -2 1 -6z"/>
<path d="M4118 213 c6 -2 9 -10 6 -15 -4 -7 -2 -8 5 -4 13 9 5 26 -12 25 -9 0
-8 -2 1 -6z"/>
<path d="M4758 213 c6 -2 9 -10 6 -15 -4 -7 -2 -8 5 -4 13 9 5 26 -12 25 -9 0
-8 -2 1 -6z"/>
<path d="M2610 241 c0 -7 -5 -9 -12 -5 -7 5 -8 3 -3 -5 5 -9 10 -10 18 -2 6 6
8 14 4 18 -4 3 -7 1 -7 -6z"/>
<path d="M6010 6600 c0 -5 5 -10 11 -10 5 0 7 5 4 10 -3 6 -8 10 -11 10 -2 0
-4 -4 -4 -10z"/>
<path d="M6080 6556 c0 -2 7 -7 16 -10 8 -3 12 -2 9 4 -6 10 -25 14 -25 6z"/>
<path d="M6189 6480 c-6 -4 1 -7 15 -7 14 0 26 3 26 7 0 3 -7 7 -15 7 -8 0
-19 -4 -26 -7z"/>
<path d="M6315 6420 c-3 -5 -1 -10 4 -10 6 0 11 5 11 10 0 6 -2 10 -4 10 -3 0
-8 -4 -11 -10z"/>
<path d="M6356 6407 c3 -10 9 -15 12 -12 3 3 0 11 -7 18 -10 9 -11 8 -5 -6z"/>
<path d="M6300 6381 c0 -5 7 -12 16 -15 14 -5 15 -4 4 9 -14 17 -20 19 -20 6z"/>
<path d="M6330 6386 c0 -3 9 -10 20 -16 11 -6 20 -8 20 -6 0 3 -9 10 -20 16
-11 6 -20 8 -20 6z"/>
<path d="M6355 6340 c-3 -6 1 -7 9 -4 18 7 21 14 7 14 -6 0 -13 -4 -16 -10z"/>
<path d="M6397 6339 c7 -7 15 -10 18 -7 3 3 -2 9 -12 12 -14 6 -15 5 -6 -5z"/>
<path d="M6370 6315 c0 -8 4 -15 8 -15 5 0 9 7 9 15 0 8 -4 15 -9 15 -4 0 -8
-7 -8 -15z"/>
<path d="M6424 6271 c1 -17 26 -28 26 -11 0 6 -4 9 -9 5 -5 -3 -11 0 -14 7 -2
9 -4 8 -3 -1z"/>
<path d="M6459 6242 c-15 -13 -19 -21 -10 -26 6 -4 10 -3 9 3 -2 5 6 17 17 25
11 8 17 16 14 16 -4 0 -17 -8 -30 -18z"/>
<path d="M6535 6229 c-4 -6 -5 -12 -2 -15 2 -3 7 2 10 11 7 17 1 20 -8 4z"/>
<path d="M6496 6218 c3 -5 10 -6 15 -3 13 9 11 12 -6 12 -8 0 -12 -4 -9 -9z"/>
<path d="M6535 6181 c-3 -5 -2 -12 3 -15 5 -3 9 1 9 9 0 17 -3 19 -12 6z"/>
<path d="M6533 6134 c-6 -16 12 -34 32 -34 6 1 2 5 -7 11 -10 5 -15 16 -12 24
4 8 3 15 0 15 -4 0 -9 -7 -13 -16z"/>
<path d="M6588 6103 c6 -2 9 -10 6 -15 -4 -7 -2 -8 5 -4 13 9 5 26 -12 25 -9
0 -8 -2 1 -6z"/>
<path d="M6546 6079 c7 -13 43 -17 38 -5 -2 6 -13 12 -24 12 -10 0 -17 -3 -14
-7z"/>
<path d="M6611 6048 c-1 -20 14 -24 25 -6 4 6 3 8 -4 4 -5 -3 -13 0 -15 6 -3
8 -6 6 -6 -4z"/>
<path d="M6647 6019 c7 -7 15 -10 18 -7 3 3 -2 9 -12 12 -14 6 -15 5 -6 -5z"/>
<path d="M6635 6000 c6 -10 3 -12 -11 -7 -18 7 -18 7 0 -8 11 -8 25 -15 30
-14 6 0 5 3 -2 6 -6 2 -10 9 -7 13 3 5 0 12 -6 16 -8 5 -9 3 -4 -6z"/>
<path d="M6606 5965 c6 -16 42 -30 51 -21 4 3 -1 6 -10 6 -9 0 -17 4 -17 9 0
5 -7 11 -14 14 -10 4 -13 1 -10 -8z"/>
<path d="M6679 5953 c-13 -16 -12 -17 4 -4 9 7 17 15 17 17 0 8 -8 3 -21 -13z"/>
<path d="M6711 5873 c12 -15 12 -16 -4 -10 -10 4 -16 3 -12 -2 3 -6 14 -9 25
-8 18 1 18 2 3 19 -20 23 -30 24 -12 1z"/>
<path d="M6741 5775 c-1 -6 5 -17 12 -24 10 -11 9 -13 -6 -8 -11 4 -16 3 -12
-4 10 -14 28 -6 31 14 1 9 -1 15 -6 12 -5 -3 -11 1 -13 7 -3 7 -6 8 -6 3z"/>
<path d="M6700 5740 c13 -9 13 -10 0 -10 -11 -1 -11 -3 3 -11 10 -6 21 -8 24
-5 8 8 -17 36 -31 36 -6 0 -4 -5 4 -10z"/>
<path d="M6744 5701 c10 -15 -5 -40 -20 -34 -15 6 -20 -12 -5 -22 5 -3 16 4
24 15 7 11 17 17 22 12 4 -4 2 3 -4 16 -6 12 -14 22 -17 22 -3 0 -3 -4 0 -9z"/>
<path d="M6777 5649 c7 -7 15 -10 18 -7 3 3 -2 9 -12 12 -14 6 -15 5 -6 -5z"/>
<path d="M6816 5618 c3 -5 10 -6 15 -3 13 9 11 12 -6 12 -8 0 -12 -4 -9 -9z"/>
<path d="M6791 5566 c-9 -10 -8 -15 2 -19 8 -3 13 3 13 14 0 23 0 23 -15 5z"/>
<path d="M6786 5504 c-5 -14 -4 -15 9 -4 17 14 19 20 6 20 -5 0 -12 -7 -15
-16z"/>
<path d="M6788 5433 c7 -3 16 -2 19 1 4 3 -2 6 -13 5 -11 0 -14 -3 -6 -6z"/>
<path d="M6806 5402 c-3 -5 1 -9 9 -9 8 0 15 4 15 9 0 4 -4 8 -9 8 -6 0 -12
-4 -15 -8z"/>
<path d="M6815 5350 c3 -5 -1 -10 -9 -10 -9 0 -16 -5 -16 -10 0 -7 7 -7 20 0
17 9 20 30 4 30 -3 0 -2 -4 1 -10z"/>
<path d="M6850 5301 c0 -6 4 -13 10 -16 6 -3 7 1 4 9 -7 18 -14 21 -14 7z"/>
<path d="M6780 5266 c0 -2 7 -6 15 -10 8 -3 15 -1 15 4 0 6 -7 10 -15 10 -8 0
-15 -2 -15 -4z"/>
<path d="M6744 5249 c-11 -18 13 -34 30 -20 10 8 16 9 19 1 3 -6 4 -5 3 2 -2
7 -9 12 -15 11 -6 -2 -11 2 -11 7 0 13 -17 13 -26 -1z m21 -9 c3 -5 1 -10 -4
-10 -6 0 -11 5 -11 10 0 6 2 10 4 10 3 0 8 -4 11 -10z"/>
<path d="M6856 5218 c3 -5 10 -6 15 -3 13 9 11 12 -6 12 -8 0 -12 -4 -9 -9z"/>
<path d="M6810 5210 c-9 -6 -10 -10 -3 -10 6 0 15 5 18 10 8 12 4 12 -15 0z"/>
<path d="M6830 5160 c0 -5 5 -10 10 -10 6 0 10 5 10 10 0 6 -4 10 -10 10 -5 0
-10 -4 -10 -10z"/>
<path d="M6795 5143 c5 -19 3 -22 -12 -17 -15 5 -15 4 -3 -5 21 -14 35 3 21
26 -11 16 -11 16 -6 -4z"/>
<path d="M6745 5100 c-3 -5 0 -7 8 -4 8 3 14 -2 14 -11 0 -9 -6 -14 -13 -11
-6 2 -11 -2 -10 -9 3 -23 15 -29 31 -15 12 10 13 16 4 26 -9 11 -8 14 0 14 7
0 9 5 6 10 -8 13 -32 13 -40 0z m30 -40 c-3 -5 -12 -10 -18 -10 -7 0 -6 4 3
10 19 12 23 12 15 0z"/>
<path d="M6856 5102 c-3 -5 1 -9 9 -9 8 0 12 4 9 9 -3 4 -7 8 -9 8 -2 0 -6 -4
-9 -8z"/>
<path d="M6800 5086 c0 -2 7 -7 16 -10 8 -3 12 -2 9 4 -6 10 -25 14 -25 6z"/>
<path d="M6855 5071 c-3 -5 -2 -12 3 -15 5 -3 9 1 9 9 0 17 -3 19 -12 6z"/>
<path d="M6785 5040 c-3 -6 1 -7 9 -4 18 7 21 14 7 14 -6 0 -13 -4 -16 -10z"/>
<path d="M6855 5021 c-3 -5 -2 -12 3 -15 5 -3 9 1 9 9 0 17 -3 19 -12 6z"/>
<path d="M6790 4980 c0 -5 5 -10 10 -10 6 0 10 5 10 10 0 6 -4 10 -10 10 -5 0
-10 -4 -10 -10z"/>
<path d="M6815 4960 c-3 -5 -3 -10 1 -10 4 0 -1 -7 -12 -16 -18 -15 -18 -15 0
-6 11 5 21 17 22 26 3 18 -2 21 -11 6z"/>
<path d="M6854 4956 c1 -8 5 -18 8 -22 4 -3 5 1 4 10 -1 8 -5 18 -8 22 -4 3
-5 -1 -4 -10z"/>
<path d="M6797 4893 c3 -7 6 -13 8 -13 2 0 5 6 8 13 3 8 -1 14 -8 14 -7 0 -11
-6 -8 -14z"/>
<path d="M6790 4858 c0 -4 4 -8 9 -8 6 0 12 4 15 8 3 5 -1 9 -9 9 -8 0 -15 -4
-15 -9z"/>
<path d="M6814 4839 c-3 -6 -2 -15 3 -20 5 -5 9 -1 9 11 0 23 -2 24 -12 9z"/>
<path d="M6855 4841 c-3 -5 -2 -12 3 -15 5 -3 9 1 9 9 0 17 -3 19 -12 6z"/>
<path d="M6790 4821 c0 -6 4 -13 10 -16 6 -3 7 1 4 9 -7 18 -14 21 -14 7z"/>
<path d="M6790 4780 c0 -5 5 -10 10 -10 6 0 10 5 10 10 0 6 -4 10 -10 10 -5 0
-10 -4 -10 -10z"/>
<path d="M6850 4780 c0 -5 5 -10 11 -10 5 0 7 5 4 10 -3 6 -8 10 -11 10 -2 0
-4 -4 -4 -10z"/>
<path d="M6790 4740 c0 -5 5 -10 10 -10 6 0 10 5 10 10 0 6 -4 10 -10 10 -5 0
-10 -4 -10 -10z"/>
<path d="M6790 4662 c0 -5 7 -9 15 -9 8 0 12 4 9 9 -3 4 -9 8 -15 8 -5 0 -9
-4 -9 -8z"/>
<path d="M6855 4660 c3 -5 8 -10 11 -10 2 0 4 5 4 10 0 6 -5 10 -11 10 -5 0
-7 -4 -4 -10z"/>
<path d="M6788 4613 c6 -2 18 -2 25 0 6 3 1 5 -13 5 -14 0 -19 -2 -12 -5z"/>
<path d="M6749 4603 c-4 -56 -5 -95 -2 -85 3 6 9 12 14 12 11 0 7 -23 -6 -32
-5 -4 -11 -16 -11 -28 -1 -17 1 -18 14 -8 13 11 15 10 9 -5 -4 -10 -7 -21 -7
-23 0 -3 -6 -2 -12 2 -9 5 -8 2 1 -9 8 -10 16 -15 19 -12 3 2 10 -3 17 -12 16
-22 38 -8 25 16 -5 10 -7 21 -5 25 3 3 2 4 -2 1 -3 -3 -13 4 -20 15 -8 11 -19
18 -24 15 -5 -4 -9 -2 -9 4 0 17 25 18 38 2 11 -13 11 -12 1 9 -18 35 -21 58
-8 66 8 4 4 11 -11 19 -12 7 -18 15 -13 18 6 4 20 -3 31 -14 12 -11 22 -16 22
-11 0 6 -11 17 -25 26 -27 18 -35 20 -36 9z m12 -56 c-10 -9 -11 -8 -5 6 3 10
9 15 12 12 3 -3 0 -11 -7 -18z m44 -146 c-4 -3 -11 2 -16 12 -6 9 -14 15 -20
12 -5 -3 -6 2 -2 11 6 15 8 15 25 -6 10 -13 16 -26 13 -29z"/>
<path d="M6790 4538 c0 -4 4 -8 9 -8 6 0 12 4 15 8 3 5 -1 9 -9 9 -8 0 -15 -4
-15 -9z"/>
<path d="M6798 4505 c5 -11 12 -27 15 -35 5 -13 6 -13 6 1 1 8 -6 24 -15 35
-15 19 -15 19 -6 -1z"/>
<path d="M6850 4419 c0 -5 5 -7 10 -4 6 3 10 8 10 11 0 2 -4 4 -10 4 -5 0 -10
-5 -10 -11z"/>
<path d="M6810 4280 c0 -5 5 -10 11 -10 5 0 7 5 4 10 -3 6 -8 10 -11 10 -2 0
-4 -4 -4 -10z"/>
<path d="M6790 4250 c0 -5 5 -10 10 -10 6 0 10 5 10 10 0 6 -4 10 -10 10 -5 0
-10 -4 -10 -10z"/>
<path d="M6813 4205 c0 -14 3 -27 7 -30 4 -2 6 7 4 21 -3 35 -11 41 -11 9z"/>
<path d="M6785 4159 c-4 -6 -4 -13 -1 -16 3 -4 6 -1 6 6 0 7 5 9 10 6 6 -3 10
-1 10 4 0 14 -17 14 -25 0z"/>
<path d="M6815 4135 c-3 -8 -8 -23 -12 -32 -9 -27 -14 -58 -7 -51 3 3 7 12 8
20 2 7 6 22 10 33 13 34 16 45 10 45 -2 0 -7 -7 -9 -15z"/>
<path d="M6830 4060 c0 -5 5 -10 11 -10 5 0 7 5 4 10 -3 6 -8 10 -11 10 -2 0
-4 -4 -4 -10z"/>
<path d="M6806 4045 c-3 -8 -1 -15 4 -15 6 0 10 7 10 15 0 8 -2 15 -4 15 -2 0
-6 -7 -10 -15z"/>
<path d="M6806 3947 c3 -10 9 -15 12 -12 3 3 0 11 -7 18 -10 9 -11 8 -5 -6z"/>
<path d="M6790 3930 c0 -5 9 -14 20 -20 11 -6 20 -9 20 -8 0 2 -9 11 -20 21
-11 9 -20 13 -20 7z"/>
<path d="M6798 3823 c0 -5 -2 -20 -3 -35 -2 -24 0 -26 14 -16 26 20 27 22 9
15 -12 -4 -18 -1 -18 9 0 8 4 12 10 9 6 -3 7 1 4 9 -7 17 -13 21 -16 9z"/>
<path d="M6805 3757 c-11 -7 -23 -16 -27 -22 -4 -5 -8 -6 -8 -1 0 5 -7 3 -15
-4 -12 -10 -13 -16 -4 -26 7 -8 7 -14 2 -14 -12 0 -11 -89 0 -107 5 -8 3 -13
-4 -13 -8 0 -8 -4 1 -15 7 -9 15 -13 18 -10 3 2 11 -3 19 -13 12 -15 12 -14 1
8 -17 33 -18 62 -4 79 8 12 8 13 -1 7 -26 -15 -12 10 19 36 18 15 27 28 21 28
-7 0 -13 -4 -13 -10 0 -5 -7 -10 -16 -10 -8 0 -12 5 -9 10 3 6 2 10 -3 10 -5
0 -9 7 -9 16 0 18 51 56 62 46 5 -4 5 -1 1 6 -4 6 -8 12 -9 11 -1 0 -11 -6
-22 -12z m-38 -42 c0 -8 -4 -12 -9 -9 -5 3 -6 10 -3 15 9 13 12 11 12 -6z m-2
-74 c-13 -13 -16 -13 -13 -1 2 8 8 18 13 22 6 5 5 8 -3 8 -7 0 -10 5 -6 11 5
8 10 6 16 -6 8 -12 6 -22 -7 -34z"/>
<path d="M6835 3729 c-4 -6 -5 -12 -2 -15 2 -3 7 2 10 11 7 17 1 20 -8 4z"/>
<path d="M6790 3710 c0 -6 7 -10 15 -10 8 0 15 2 15 4 0 2 -7 6 -15 10 -8 3
-15 1 -15 -4z"/>
<path d="M6811 3651 c-7 -5 -11 -13 -7 -19 3 -6 2 -13 -3 -16 -4 -3 -8 -18 -8
-32 0 -22 1 -24 9 -10 5 9 6 20 3 25 -3 6 3 14 12 20 12 7 13 10 4 11 -11 0
-11 3 -1 15 14 17 11 19 -9 6z"/>
<path d="M6846 3542 c-3 -5 1 -9 9 -9 8 0 12 4 9 9 -3 4 -7 8 -9 8 -2 0 -6 -4
-9 -8z"/>
<path d="M6749 3528 c-6 -13 -2 -271 4 -275 4 -3 3 -11 -4 -19 -10 -12 -9 -13
5 -8 9 3 16 10 16 16 0 5 5 6 10 3 6 -3 10 -1 10 5 0 7 -7 10 -15 7 -8 -4 -17
-2 -20 3 -4 6 1 10 9 10 9 0 16 5 16 11 0 5 -4 8 -9 4 -5 -3 -13 -1 -16 5 -4
6 -3 10 2 9 22 -4 31 3 31 27 0 18 -3 22 -9 13 -5 -9 -7 0 -6 23 1 26 6 37 16
35 8 -1 16 4 19 12 3 10 -2 11 -19 6 -20 -6 -22 -5 -11 6 10 11 8 17 -10 32
-13 10 -16 17 -8 14 15 -4 70 18 70 29 0 2 -9 0 -20 -6 -11 -6 -20 -7 -20 -3
0 4 -4 2 -9 -5 -7 -11 -9 -11 -14 0 -3 9 3 14 16 15 21 2 60 33 40 33 -6 0
-13 -6 -16 -12 -3 -10 -9 -10 -26 0 -20 12 -30 15 -32 10z m26 -18 c3 -6 -1
-7 -9 -4 -18 7 -21 14 -7 14 6 0 13 -4 16 -10z m-2 -73 c9 5 9 3 1 -8 -6 -8
-10 -26 -9 -42 1 -15 -1 -25 -4 -22 -3 3 -6 25 -7 48 -1 23 1 36 3 29 3 -6 10
-9 16 -5z m-2 -120 c-1 -12 -15 -9 -19 4 -3 6 1 10 8 8 6 -3 11 -8 11 -12z"/>
<path d="M6810 3461 c0 -7 -4 -9 -10 -6 -6 4 -7 -1 -3 -11 6 -15 7 -15 15 1 6
9 7 19 4 22 -3 4 -6 1 -6 -6z"/>
<path d="M6820 3426 c0 -2 8 -10 18 -17 15 -13 16 -12 3 4 -13 16 -21 21 -21
13z"/>
<path d="M6810 3381 c0 -7 -4 -9 -10 -6 -5 3 -10 2 -10 -4 0 -5 4 -12 9 -15
10 -6 25 24 16 32 -3 3 -5 0 -5 -7z"/>
<path d="M6829 3337 c6 -8 7 -18 3 -22 -4 -5 -1 -5 6 -1 10 6 10 11 1 22 -6 8
-14 14 -16 14 -3 0 0 -6 6 -13z"/>
<path d="M6800 3335 c0 -5 5 -17 10 -25 5 -8 10 -10 10 -5 0 6 -5 17 -10 25
-5 8 -10 11 -10 5z"/>
<path d="M6790 3282 c0 -4 9 -13 20 -19 14 -9 21 -10 26 -1 4 7 3 8 -5 4 -6
-4 -14 0 -17 8 -6 16 -24 22 -24 8z"/>
<path d="M6800 3242 c0 -4 6 -16 13 -26 10 -14 14 -15 14 -4 0 7 -6 19 -14 26
-7 7 -13 9 -13 4z"/>
<path d="M6790 3190 c0 -5 5 -10 10 -10 6 0 10 5 10 10 0 6 -4 10 -10 10 -5 0
-10 -4 -10 -10z"/>
<path d="M6786 3054 c-10 -25 -7 -33 14 -44 16 -9 18 -8 14 5 -3 8 -10 12 -15
9 -5 -3 -9 2 -9 10 0 19 11 21 27 5 8 -8 13 -7 18 2 5 8 4 10 -4 5 -6 -4 -14
0 -17 8 -8 20 -20 20 -28 0z"/>
<path d="M6839 3018 c-5 -18 -6 -38 -1 -34 7 8 12 36 6 36 -2 0 -4 -1 -5 -2z"/>
<path d="M6802 2969 c-16 -26 -10 -34 15 -20 10 6 13 11 6 11 -7 0 -10 7 -7
15 9 22 1 18 -14 -6z"/>
<path d="M6815 2870 c4 -14 2 -19 -7 -17 -7 2 -10 2 -5 0 4 -3 5 -8 2 -13 -3
-4 1 -10 8 -13 8 -3 12 6 13 29 0 19 -4 34 -8 34 -5 0 -7 -9 -3 -20z"/>
<path d="M6790 2690 c0 -6 7 -13 15 -16 8 -4 13 -10 10 -14 -3 -5 -2 -11 3
-14 4 -2 8 6 8 19 0 16 -4 21 -15 17 -9 -3 -12 -1 -7 6 4 7 2 12 -3 12 -6 0
-11 -5 -11 -10z"/>
<path d="M6791 2637 c2 -1 11 -8 20 -15 13 -10 19 -9 30 5 13 16 12 17 -3 5
-11 -9 -18 -10 -23 -2 -3 5 -11 10 -17 10 -6 0 -9 -1 -7 -3z"/>
<path d="M6856 2553 c-6 -14 -5 -15 5 -6 7 7 10 15 7 18 -3 3 -9 -2 -12 -12z"/>
<path d="M6744 2546 c1 -8 5 -18 8 -22 4 -3 5 1 4 10 -1 8 -5 18 -8 22 -4 3
-5 -1 -4 -10z"/>
<path d="M6830 2506 c0 -2 7 -7 16 -10 8 -3 12 -2 9 4 -6 10 -25 14 -25 6z"/>
<path d="M6835 2342 c3 -3 0 -10 -5 -17 -7 -8 -5 -12 5 -12 8 0 13 3 10 5 -3
3 0 10 5 17 7 8 5 12 -5 12 -8 0 -13 -3 -10 -5z"/>
<path d="M6749 2268 c-6 -27 -6 -38 1 -38 4 0 6 -10 5 -22 -1 -13 -3 -23 -5
-23 -7 0 -5 -97 2 -101 5 -3 5 -11 1 -17 -13 -21 -10 -43 6 -42 20 1 60 24 44
25 -7 0 -13 5 -13 11 0 5 4 8 8 5 4 -2 14 5 21 17 8 12 10 19 6 15 -10 -9 -40
30 -31 39 3 4 13 -2 22 -13 14 -18 15 -18 4 4 -7 15 -17 21 -28 18 -9 -3 -24
-1 -32 5 -13 9 -12 10 3 5 20 -6 22 4 5 24 -7 7 4 4 24 -8 22 -12 40 -17 43
-11 4 5 3 9 -2 8 -19 -3 -22 2 -13 26 5 14 6 25 1 25 -5 0 -23 12 -40 26 -17
14 -31 24 -32 22z m36 -38 c3 -5 1 -18 -4 -27 -6 -10 -11 -13 -11 -8 -1 6 -3
18 -5 28 -3 18 10 23 20 7z m21 -47 c-11 -11 -19 6 -11 24 8 17 8 17 12 0 3
-10 2 -21 -1 -24z m-16 -108 c-15 -8 -17 -14 -9 -22 8 -8 8 -13 0 -17 -6 -4
-11 0 -11 9 0 10 -5 13 -12 9 -10 -6 -10 -5 -1 8 7 8 10 18 6 22 -4 3 -8 14
-9 23 -5 32 9 35 33 7 24 -28 24 -28 3 -39z"/>
<path d="M6764 2110 c1 -14 6 -24 9 -22 11 4 11 6 -1 27 -11 19 -12 18 -8 -5z"/>
<path d="M6830 2196 c0 -2 8 -10 18 -17 15 -13 16 -12 3 4 -13 16 -21 21 -21
13z"/>
<path d="M6853 2085 c0 -8 4 -15 9 -15 4 0 8 4 8 9 0 6 -4 12 -8 15 -5 3 -9
-1 -9 -9z"/>
<path d="M6853 1995 c0 -8 4 -12 9 -9 4 3 8 9 8 15 0 5 -4 9 -8 9 -5 0 -9 -7
-9 -15z"/>
<path d="M6836 1822 c-3 -5 1 -9 9 -9 8 0 12 4 9 9 -3 4 -7 8 -9 8 -2 0 -6 -4
-9 -8z"/>
<path d="M6850 1696 c0 -2 8 -10 18 -17 15 -13 16 -12 3 4 -13 16 -21 21 -21
13z"/>
<path d="M6873 1495 c0 -8 4 -12 9 -9 5 3 6 10 3 15 -9 13 -12 11 -12 -6z"/>
<path d="M6846 1442 c-3 -5 1 -9 9 -9 8 0 12 4 9 9 -3 4 -7 8 -9 8 -2 0 -6 -4
-9 -8z"/>
<path d="M6805 1430 c-3 -6 1 -7 9 -4 18 7 21 14 7 14 -6 0 -13 -4 -16 -10z"/>
<path d="M6830 1397 c0 -2 6 -10 14 -16 11 -9 16 -9 22 1 4 7 4 10 -1 6 -4 -4
-14 -3 -22 3 -7 6 -13 9 -13 6z"/>
<path d="M6815 1359 c-4 -6 -4 -13 -1 -16 3 -4 6 -1 6 6 0 7 5 9 12 5 7 -4 8
-3 4 4 -9 15 -13 15 -21 1z"/>
<path d="M6805 1239 c-3 -4 2 -6 10 -5 21 3 28 13 10 13 -9 0 -18 -4 -20 -8z"/>
<path d="M6819 1153 c-13 -16 -12 -17 4 -4 16 13 21 21 13 21 -2 0 -10 -8 -17
-17z"/>
<path d="M6836 1113 c-6 -14 -5 -15 5 -6 7 7 10 15 7 18 -3 3 -9 -2 -12 -12z"/>
<path d="M352 1100 c2 -8 -3 -14 -9 -12 -19 3 -16 -6 5 -17 15 -8 18 -6 17 9
-1 11 -5 23 -9 27 -4 5 -6 1 -4 -7z"/>
<path d="M6676 1091 c-4 -6 -5 -15 -1 -20 3 -5 1 -12 -5 -16 -6 -4 -8 -11 -5
-16 4 -5 2 -9 -4 -9 -5 0 -13 9 -16 21 -7 21 -7 21 -23 -2 -21 -30 -24 -64 -5
-48 9 8 13 8 14 0 5 -40 5 -40 43 -25 12 4 17 4 13 -2 -3 -6 -2 -16 3 -24 7
-12 9 -11 9 5 1 54 6 61 36 55 6 -1 6 2 2 7 -5 4 -14 8 -19 8 -6 0 -13 5 -15
11 -2 7 4 11 14 10 10 0 18 6 18 14 0 8 -8 15 -18 15 -10 0 -22 6 -26 14 -6 9
-11 10 -15 2z m20 -51 c1 -19 -3 -27 -11 -24 -14 6 -16 34 -2 34 5 0 6 8 3 17
-4 10 -4 14 1 10 4 -5 8 -21 9 -37z m34 20 c0 -5 -4 -10 -10 -10 -5 0 -10 5
-10 10 0 6 5 10 10 10 6 0 10 -4 10 -10z m-55 -50 c26 0 24 -16 -4 -27 -20 -7
-28 -7 -29 1 0 6 -3 25 -7 41 -6 30 -6 30 10 8 9 -13 22 -23 30 -23z"/>
<path d="M6646 1005 c4 -8 11 -15 16 -15 6 0 5 6 -2 15 -7 8 -14 15 -16 15 -2
0 -1 -7 2 -15z"/>
<path d="M370 1041 c0 -5 7 -12 16 -15 14 -5 15 -4 4 9 -14 17 -20 19 -20 6z"/>
<path d="M6736 967 c3 -10 9 -15 12 -12 3 3 0 11 -7 18 -10 9 -11 8 -5 -6z"/>
<path d="M6656 952 c-6 -10 -2 -40 7 -47 4 -3 5 -2 2 1 -2 4 0 15 5 25 10 18
-3 38 -14 21z"/>
<path d="M6713 947 c0 -7 9 -14 20 -14 11 -1 18 -1 16 0 -2 2 -11 8 -20 15
-12 9 -16 9 -16 -1z"/>
<path d="M6686 922 c-3 -5 1 -9 9 -9 8 0 12 4 9 9 -3 4 -7 8 -9 8 -2 0 -6 -4
-9 -8z"/>
<path d="M430 911 c0 -6 5 -11 11 -11 5 0 7 -5 4 -10 -4 -6 -11 -7 -17 -4 -7
5 -8 2 -3 -5 5 -9 10 -10 18 -2 15 15 32 14 20 -1 -5 -7 -6 -24 -2 -38 7 -25
7 -25 8 -2 1 13 5 21 10 17 6 -3 8 -14 6 -25 -2 -12 0 -18 5 -15 11 7 7 30
-10 51 -8 9 -13 19 -10 22 3 2 -5 11 -17 20 -15 9 -23 10 -23 3z"/>
<path d="M6535 893 c-2 -8 2 -16 10 -20 13 -4 13 -8 3 -22 -9 -11 -7 -11 9 2
26 22 27 56 1 54 -10 -1 -20 -7 -23 -14z"/>
<path d="M6688 892 c-17 -7 -17 -8 0 -18 15 -10 18 -8 18 7 0 11 0 19 -1 18 0
0 -8 -4 -17 -7z"/>
<path d="M6660 866 c0 -2 8 -10 18 -17 15 -13 16 -12 3 4 -13 16 -21 21 -21
13z"/>
<path d="M6650 841 c0 -6 4 -13 10 -16 6 -3 7 1 4 9 -7 18 -14 21 -14 7z"/>
<path d="M6510 809 c0 -5 5 -7 10 -4 6 3 10 8 10 11 0 2 -4 4 -10 4 -5 0 -10
-5 -10 -11z"/>
<path d="M467 799 c7 -7 15 -10 18 -7 3 3 -2 9 -12 12 -14 6 -15 5 -6 -5z"/>
<path d="M500 800 c0 -6 7 -10 15 -10 8 0 15 2 15 4 0 2 -7 6 -15 10 -8 3 -15
1 -15 -4z"/>
<path d="M6635 800 c3 -5 8 -10 11 -10 2 0 4 5 4 10 0 6 -5 10 -11 10 -5 0 -7
-4 -4 -10z"/>
<path d="M6460 785 c-14 -16 -3 -20 19 -6 8 5 9 11 3 15 -5 3 -15 -1 -22 -9z"/>
<path d="M542 758 c-6 -6 -8 -18 -4 -27 5 -14 4 -15 -14 -1 -18 14 -18 14 -5
-2 17 -22 16 -23 35 6 16 26 8 44 -12 24z"/>
<path d="M6625 740 c-3 -6 1 -7 9 -4 18 7 21 14 7 14 -6 0 -13 -4 -16 -10z"/>
<path d="M6409 730 c-2 -11 -7 -36 -10 -49 -5 -19 43 -20 49 -2 3 10 0 12 -11
8 -9 -3 -19 -1 -23 5 -4 7 -3 8 4 4 7 -4 12 -4 12 1 0 10 -19 40 -21 33z"/>
<path d="M6430 720 c0 -16 17 -20 28 -7 8 10 6 13 -9 14 -10 1 -19 -2 -19 -7z"/>
<path d="M6615 709 c-4 -6 -5 -12 -2 -15 2 -3 7 2 10 11 7 17 1 20 -8 4z"/>
<path d="M6553 675 c0 -8 4 -12 9 -9 5 3 6 10 3 15 -9 13 -12 11 -12 -6z"/>
<path d="M6573 645 c0 -8 4 -12 9 -9 5 3 6 10 3 15 -9 13 -12 11 -12 -6z"/>
<path d="M6515 640 c3 -5 8 -10 11 -10 2 0 4 5 4 10 0 6 -5 10 -11 10 -5 0 -7
-4 -4 -10z"/>
<path d="M6470 560 c0 -5 5 -10 10 -10 6 0 10 5 10 10 0 6 -4 10 -10 10 -5 0
-10 -4 -10 -10z"/>
<path d="M6420 546 c0 -2 9 -6 20 -9 11 -3 18 -1 14 4 -5 9 -34 13 -34 5z"/>
<path d="M6400 495 c-11 -13 -11 -18 0 -28 10 -9 11 -9 6 1 -4 7 -2 19 4 27 7
8 10 15 7 15 -2 0 -10 -7 -17 -15z"/>
<path d="M750 460 c0 -5 9 -8 20 -7 21 1 18 10 -5 13 -8 1 -15 -2 -15 -6z"/>
<path d="M6357 457 c4 -6 0 -8 -9 -5 -8 4 -15 1 -15 -7 0 -8 7 -11 15 -7 11 4
13 1 7 -9 -5 -8 -5 -11 1 -6 5 5 9 12 9 15 0 4 3 12 7 18 4 6 1 11 -7 11 -8 0
-11 -5 -8 -10z"/>
<path d="M6259 428 c0 -2 -2 -13 -3 -26 -3 -21 -2 -21 16 -5 22 20 23 24 1 16
-11 -4 -14 -3 -9 5 4 7 5 12 2 12 -3 0 -6 -1 -7 -2z"/>
<path d="M826 398 c3 -5 10 -6 15 -3 13 9 11 12 -6 12 -8 0 -12 -4 -9 -9z"/>
<path d="M5990 380 c0 -5 5 -10 10 -10 6 0 10 5 10 10 0 6 -4 10 -10 10 -5 0
-10 -4 -10 -10z"/>
<path d="M6230 385 c0 -5 5 -17 10 -25 5 -8 10 -10 10 -5 0 6 -5 17 -10 25 -5
8 -10 11 -10 5z"/>
<path d="M6280 380 c-9 -6 -10 -10 -3 -10 6 0 15 5 18 10 8 12 4 12 -15 0z"/>
<path d="M875 360 c3 -5 8 -10 11 -10 2 0 4 5 4 10 0 6 -5 10 -11 10 -5 0 -7
-4 -4 -10z"/>
<path d="M1050 339 c0 -5 5 -7 10 -4 6 3 10 8 10 11 0 2 -4 4 -10 4 -5 0 -10
-5 -10 -11z"/>
<path d="M6207 339 c7 -7 15 -10 18 -7 3 3 -2 9 -12 12 -14 6 -15 5 -6 -5z"/>
<path d="M6110 329 c0 -5 5 -7 10 -4 6 3 10 8 10 11 0 2 -4 4 -10 4 -5 0 -10
-5 -10 -11z"/>
<path d="M6160 320 c-12 -7 -10 -9 8 -7 12 0 22 5 22 9 0 11 -12 10 -30 -2z"/>
<path d="M6240 320 c-9 -6 -10 -10 -3 -10 6 0 15 5 18 10 8 12 4 12 -15 0z"/>
<path d="M6060 316 c0 -2 11 -6 25 -8 13 -3 22 -1 19 3 -5 9 -44 13 -44 5z"/>
<path d="M5671 284 c-20 -15 -29 -35 -13 -33 19 3 32 -2 32 -12 0 -8 -5 -8
-15 1 -8 7 -15 9 -15 5 0 -5 -9 0 -20 10 -11 10 -20 14 -20 9 0 -12 20 -42 20
-30 0 5 6 3 13 -3 8 -6 16 -8 19 -5 3 3 9 1 13 -5 3 -6 1 -11 -4 -11 -6 0 -11
-5 -11 -11 0 -8 4 -8 15 1 8 6 19 9 26 5 8 -6 8 -2 0 13 -14 26 -14 35 -1 27
6 -3 10 -4 10 -1 0 3 -12 12 -26 19 -22 12 -24 15 -10 20 11 5 15 3 10 -5 -5
-8 -2 -9 10 -5 10 4 15 3 11 -3 -3 -6 1 -10 10 -10 12 0 14 -4 5 -20 -8 -15
-6 -21 9 -30 28 -15 35 -12 17 6 -21 20 -20 30 2 44 16 11 16 11 -1 6 -13 -4
-20 0 -24 12 -5 22 -34 25 -62 6z"/>
<path d="M6131 293 c-1 -17 16 -25 25 -12 4 7 3 9 -4 5 -5 -3 -13 0 -15 6 -4
9 -6 10 -6 1z"/>
<path d="M1036 273 c-6 -14 -5 -15 5 -6 7 7 10 15 7 18 -3 3 -9 -2 -12 -12z"/>
<path d="M6000 271 c0 -6 4 -13 10 -16 6 -3 7 1 4 9 -7 18 -14 21 -14 7z"/>
<path d="M6074 265 c1 -8 8 -21 16 -28 12 -10 12 -9 2 4 -6 9 -9 18 -6 21 3 3
1 9 -4 12 -6 3 -9 -1 -8 -9z"/>
<path d="M1090 256 c0 -2 8 -10 18 -17 15 -13 16 -12 3 4 -13 16 -21 21 -21
13z"/>
<path d="M5409 256 c-11 -19 -3 -32 20 -30 14 1 35 2 46 3 30 2 0 25 -35 27
-17 1 -30 1 -31 0z"/>
<path d="M5562 253 c-6 -2 -10 -9 -6 -14 8 -14 21 -11 28 6 6 15 1 17 -22 8z"/>
<path d="M1190 245 c0 -5 5 -17 10 -25 5 -8 10 -10 10 -5 0 6 -5 17 -10 25 -5
8 -10 11 -10 5z"/>
<path d="M5967 239 c7 -7 15 -10 18 -7 3 3 -2 9 -12 12 -14 6 -15 5 -6 -5z"/>
<path d="M1137 223 c-3 -5 8 -8 25 -9 20 -1 25 2 16 7 -16 11 -35 11 -41 2z"/>
<path d="M5930 199 c0 -5 5 -7 10 -4 6 3 10 8 10 11 0 2 -4 4 -10 4 -5 0 -10
-5 -10 -11z"/>
<path d="M2070 190 c0 -5 5 -10 10 -10 6 0 10 5 10 10 0 6 -4 10 -10 10 -5 0
-10 -4 -10 -10z"/>
<path d="M3030 190 c0 -5 5 -10 10 -10 6 0 10 5 10 10 0 6 -4 10 -10 10 -5 0
-10 -4 -10 -10z"/>
<path d="M1276 178 c3 -5 10 -6 15 -3 13 9 11 12 -6 12 -8 0 -12 -4 -9 -9z"/>
<path d="M5710 183 c0 -5 5 -15 10 -23 7 -12 9 -10 7 8 -1 19 -17 33 -17 15z"/>
<path d="M5793 175 c0 -8 4 -12 9 -9 4 3 8 9 8 15 0 5 -4 9 -8 9 -5 0 -9 -7
-9 -15z"/>
<path d="M5605 171 c-11 -5 -24 -6 -29 -3 -5 3 -6 0 -3 -6 8 -11 44 -5 53 9 6
10 6 10 -21 0z"/>
<path d="M1492 165 c3 -3 16 -8 28 -10 12 -2 20 -1 16 2 -4 4 -16 8 -28 10
-12 2 -19 1 -16 -2z"/>
<path d="M1561 156 c-9 -11 -9 -16 0 -22 7 -4 9 -3 5 4 -3 6 2 15 11 21 10 6
13 11 7 11 -6 0 -17 -6 -23 -14z"/>
<path d="M1600 166 c0 -2 8 -10 18 -17 15 -13 16 -12 3 4 -13 16 -21 21 -21
13z"/>
<path d="M1691 167 c2 -1 15 -11 29 -22 l25 -20 -19 23 c-11 12 -24 22 -29 22
-6 0 -8 -1 -6 -3z"/>
<path d="M1754 146 c3 -16 8 -31 11 -35 3 -3 4 7 1 23 -3 16 -8 31 -11 35 -3
3 -4 -7 -1 -23z"/>
<path d="M2146 158 c3 -4 9 -8 15 -8 5 0 9 4 9 8 0 5 -7 9 -15 9 -8 0 -12 -4
-9 -9z"/>
<path d="M2255 161 c-3 -5 -2 -12 3 -15 5 -3 9 1 9 9 0 17 -3 19 -12 6z"/>
<path d="M2491 167 c2 -1 15 -11 29 -22 l25 -20 -19 23 c-11 12 -24 22 -29 22
-6 0 -8 -1 -6 -3z"/>
<path d="M2553 152 c2 -12 6 -24 10 -28 3 -4 4 4 2 16 -6 30 -16 40 -12 12z"/>
<path d="M2686 157 c3 -10 9 -15 12 -12 3 3 0 11 -7 18 -10 9 -11 8 -5 -6z"/>
<path d="M2736 153 c-6 -14 -5 -15 5 -6 7 7 10 15 7 18 -3 3 -9 -2 -12 -12z"/>
<path d="M3106 158 c3 -4 9 -8 15 -8 5 0 9 4 9 8 0 5 -7 9 -15 9 -8 0 -12 -4
-9 -9z"/>
<path d="M3291 167 c2 -1 15 -11 29 -22 l25 -20 -19 23 c-11 12 -24 22 -29 22
-6 0 -8 -1 -6 -3z"/>
<path d="M3354 146 c3 -16 8 -31 11 -35 3 -3 4 7 1 23 -3 16 -8 31 -11 35 -3
3 -4 -7 -1 -23z"/>
<path d="M3516 162 c-3 -5 1 -9 9 -9 8 0 12 4 9 9 -3 4 -7 8 -9 8 -2 0 -6 -4
-9 -8z"/>
<path d="M3611 167 c2 -1 15 -11 29 -22 l25 -20 -19 23 c-11 12 -24 22 -29 22
-6 0 -8 -1 -6 -3z"/>
<path d="M3674 146 c3 -16 8 -31 11 -35 3 -3 4 7 1 23 -3 16 -8 31 -11 35 -3
3 -4 -7 -1 -23z"/>
<path d="M4091 167 c2 -1 15 -11 29 -22 l25 -20 -19 23 c-11 12 -24 22 -29 22
-6 0 -8 -1 -6 -3z"/>
<path d="M4153 152 c2 -12 6 -24 10 -28 3 -4 4 4 2 16 -6 30 -16 40 -12 12z"/>
<path d="M4286 157 c3 -10 9 -15 12 -12 3 3 0 11 -7 18 -10 9 -11 8 -5 -6z"/>
<path d="M4731 167 c2 -1 15 -11 29 -22 l25 -20 -19 23 c-11 12 -24 22 -29 22
-6 0 -8 -1 -6 -3z"/>
<path d="M4793 152 c2 -12 6 -24 10 -28 3 -4 4 4 2 16 -6 30 -16 40 -12 12z"/>
<path d="M4926 157 c3 -10 9 -15 12 -12 3 3 0 11 -7 18 -10 9 -11 8 -5 -6z"/>
<path d="M5442 158 c-15 -15 -15 -28 0 -28 6 0 8 3 5 7 -4 3 -2 12 4 20 14 16
7 17 -9 1z"/>
<path d="M5486 162 c-3 -5 1 -9 9 -9 8 0 15 4 15 9 0 4 -4 8 -9 8 -6 0 -12 -4
-15 -8z"/>
<path d="M5633 152 c-8 -14 -8 -19 1 -19 7 0 13 9 13 19 2 23 1 23 -14 0z"/>
<path d="M1655 150 c-3 -6 1 -7 9 -4 18 7 21 14 7 14 -6 0 -13 -4 -16 -10z"/>
<path d="M2037 149 c7 -7 15 -10 18 -7 3 3 -2 9 -12 12 -14 6 -15 5 -6 -5z"/>
<path d="M2455 150 c-3 -6 1 -7 9 -4 18 7 21 14 7 14 -6 0 -13 -4 -16 -10z"/>
<path d="M2832 147 c-8 -10 -6 -13 7 -13 11 0 17 6 14 13 -3 7 -6 13 -8 13 -1
0 -7 -6 -13 -13z"/>
<path d="M2997 149 c7 -7 15 -10 18 -7 3 3 -2 9 -12 12 -14 6 -15 5 -6 -5z"/>
<path d="M3255 150 c-3 -6 1 -7 9 -4 18 7 21 14 7 14 -6 0 -13 -4 -16 -10z"/>
<path d="M3575 150 c-3 -6 1 -7 9 -4 18 7 21 14 7 14 -6 0 -13 -4 -16 -10z"/>
<path d="M4055 150 c-3 -6 1 -7 9 -4 18 7 21 14 7 14 -6 0 -13 -4 -16 -10z"/>
<path d="M4695 150 c-3 -6 1 -7 9 -4 18 7 21 14 7 14 -6 0 -13 -4 -16 -10z"/>
<path d="M5280 156 c0 -2 7 -7 16 -10 8 -3 12 -2 9 4 -6 10 -25 14 -25 6z"/>
<path d="M5693 145 c0 -8 4 -12 9 -9 5 3 6 10 3 15 -9 13 -12 11 -12 -6z"/>
<path d="M1486 142 c-3 -5 1 -9 9 -9 8 0 12 4 9 9 -3 4 -7 8 -9 8 -2 0 -6 -4
-9 -8z"/>
<path d="M1580 146 c0 -2 8 -10 18 -17 15 -13 16 -12 3 4 -13 16 -21 21 -21
13z"/>
<path d="M1680 135 c-7 -8 -17 -12 -23 -8 -6 4 -7 1 -3 -6 6 -9 13 -8 27 5 10
9 19 19 19 21 0 7 -8 2 -20 -12z"/>
<path d="M1925 139 c-4 -6 -14 -8 -24 -4 -13 5 -14 4 -3 -6 10 -11 15 -10 29
4 10 9 14 17 11 17 -4 0 -10 -5 -13 -11z"/>
<path d="M2073 133 c0 -9 4 -10 14 -2 7 6 13 12 13 14 0 1 -6 2 -13 2 -8 0
-14 -6 -14 -14z"/>
<path d="M2480 135 c-7 -9 -11 -17 -9 -20 3 -2 10 5 17 15 14 24 10 26 -8 5z"/>
<path d="M2880 140 c-9 -6 -10 -10 -3 -10 6 0 15 5 18 10 8 12 4 12 -15 0z"/>
<path d="M3033 133 c0 -9 4 -10 14 -2 7 6 13 12 13 14 0 1 -6 2 -13 2 -8 0
-14 -6 -14 -14z"/>
<path d="M3188 143 c6 -2 9 -10 6 -15 -4 -7 -2 -8 5 -4 13 9 5 26 -12 25 -9 0
-8 -2 1 -6z"/>
<path d="M3279 133 c-13 -16 -12 -17 4 -4 16 13 21 21 13 21 -2 0 -10 -8 -17
-17z"/>
<path d="M3599 133 c-13 -16 -12 -17 4 -4 9 7 17 15 17 17 0 8 -8 3 -21 -13z"/>
<path d="M4080 135 c-7 -9 -11 -17 -9 -20 3 -2 10 5 17 15 14 24 10 26 -8 5z"/>
<path d="M4720 135 c-7 -9 -11 -17 -9 -20 3 -2 10 5 17 15 14 24 10 26 -8 5z"/>
<path d="M5555 140 c3 -5 8 -10 11 -10 2 0 4 5 4 10 0 6 -5 10 -11 10 -5 0 -7
-4 -4 -10z"/>
<path d="M2011 133 c-1 -17 16 -25 25 -12 4 7 3 9 -4 5 -5 -3 -13 0 -15 6 -4
9 -6 10 -6 1z"/>
<path d="M2971 133 c-1 -17 16 -25 25 -12 4 7 3 9 -4 5 -5 -3 -13 0 -15 6 -4
9 -6 10 -6 1z"/>
<path d="M3500 126 c7 -7 13 -7 20 0 6 6 3 10 -10 10 -13 0 -16 -4 -10 -10z"/>
<path d="M3818 128 c5 -5 16 -8 23 -6 8 3 3 7 -10 11 -17 4 -21 3 -13 -5z"/>
<path d="M5315 91 c-3 -5 -2 -12 3 -15 5 -3 9 1 9 9 0 17 -3 19 -12 6z"/>
</g>
</svg>
