<?xml version="1.0" standalone="no"?>
<!DOCTYPE svg PUBLIC "-//W3C//DTD SVG 20010904//EN"
 "http://www.w3.org/TR/2001/REC-SVG-20010904/DTD/svg10.dtd">
<svg version="1.0" xmlns="http://www.w3.org/2000/svg"
 width="288.000000pt" height="288.000000pt" viewBox="0 0 288.000000 288.000000"
 preserveAspectRatio="xMidYMid meet">
<metadata>
Created by potrace 1.11, written by Peter Selinger 2001-2013
</metadata>
<g transform="translate(0.000000,288.000000) scale(0.100000,-0.100000)"
fill="#000000" stroke="none">
<path d="M1055 1800 c-130 -20 -227 -64 -412 -188 -186 -124 -266 -162 -343
-162 -113 0 -150 154 -54 229 35 27 93 28 127 1 59 -47 65 -4 7 52 -41 38 -56
43 -135 39 -206 -8 -306 -246 -190 -454 84 -149 293 -235 590 -242 153 -4 244
8 382 50 101 31 261 110 342 170 33 25 65 45 71 45 5 0 40 -22 77 -49 89 -65
227 -133 333 -165 138 -42 231 -55 380 -51 126 3 155 6 220 21 14 3 35 8 48
10 39 7 115 35 162 59 108 55 190 166 208 281 11 66 -8 160 -43 213 -45 67
-139 118 -215 115 -66 -3 -75 -6 -111 -43 -40 -40 -51 -71 -24 -71 8 0 15 4
15 8 0 14 48 32 85 32 64 0 124 -81 111 -151 -3 -13 -5 -28 -5 -32 -1 -4 -15
-21 -31 -37 -67 -65 -194 -23 -433 142 -228 158 -387 207 -558 172 -89 -18
-127 -33 -175 -70 l-45 -35 -30 25 c-76 64 -239 104 -354 86z"/>
</g>
</svg>
