<?xml version="1.0" standalone="no"?>
<!DOCTYPE svg PUBLIC "-//W3C//DTD SVG 20010904//EN"
 "http://www.w3.org/TR/2001/REC-SVG-20010904/DTD/svg10.dtd">
<svg version="1.0" xmlns="http://www.w3.org/2000/svg"
 width="386.000000pt" height="386.000000pt" viewBox="0 0 386.000000 386.000000"
 preserveAspectRatio="xMidYMid meet">
<metadata>
Created by potrace 1.11, written by Peter Selinger 2001-2013
</metadata>
<g transform="translate(0.000000,386.000000) scale(0.100000,-0.100000)"
fill="#000000" stroke="none">
<path d="M31 3703 c-29 -110 -32 -144 -26 -333 8 -275 13 -408 19 -535 4 -60
8 -159 11 -220 3 -60 8 -135 10 -165 2 -30 7 -100 10 -155 3 -55 8 -122 11
-150 2 -27 6 -81 9 -120 3 -38 7 -86 10 -105 2 -19 7 -62 10 -95 7 -81 20
-179 30 -235 2 -14 7 -43 10 -65 34 -239 168 -493 375 -708 313 -327 893 -641
1289 -698 226 -32 488 27 811 184 358 173 655 395 841 628 63 80 189 280 189
302 0 5 6 23 14 40 31 70 68 213 81 312 3 28 8 59 10 70 4 20 10 67 20 165 3
30 8 73 10 95 2 22 7 78 10 125 3 47 8 101 10 120 2 19 7 80 10 135 3 55 8
125 10 155 3 30 7 107 10 170 3 63 8 162 10 220 22 432 27 722 15 777 -29 130
-41 149 -61 96 -10 -27 -86 -314 -94 -355 -8 -37 -46 -192 -72 -283 -93 -338
-187 -537 -329 -694 -44 -48 -176 -151 -194 -151 -5 0 -15 19 -24 41 -61 151
-225 285 -496 404 -36 15 -128 59 -205 96 -77 37 -171 77 -209 89 -82 27 -180
33 -217 14 -20 -10 -29 -10 -38 -1 -20 20 -139 14 -213 -11 -37 -12 -125 -50
-195 -83 -70 -34 -162 -76 -203 -95 -117 -54 -230 -113 -290 -154 -100 -68
-189 -171 -231 -267 -8 -18 -16 -33 -19 -33 -16 0 -124 82 -176 134 -98 99
-178 228 -244 395 -54 135 -89 256 -180 616 -83 330 -94 365 -109 365 -6 0
-15 -17 -20 -37z m1921 -1396 c62 -59 224 -111 411 -132 26 -3 68 -7 95 -10
70 -8 143 -33 174 -60 66 -57 133 -212 141 -326 10 -146 -62 -277 -182 -331
-107 -49 -203 -11 -366 145 -68 65 -170 131 -227 147 -90 24 -205 -9 -288 -81
-19 -17 -62 -54 -94 -82 -32 -29 -71 -63 -85 -75 -44 -40 -126 -73 -180 -74
-134 -1 -261 143 -264 299 -1 86 6 134 34 209 56 150 135 215 278 229 252 24
399 62 484 125 46 34 50 35 69 17z"/>
</g>
</svg>
