<svg xmlns="http://www.w3.org/2000/svg" viewBox="0 0 58 57" width="58" height="57" fill="#fff"><path d="M29.5 8.8V.4c0-.2-.2-.4-.5-.4-.2 0-.4.2-.4.4v8.4h.9zm-10.7 2.9c.2-.1.5-.3.7-.4L15.3 4c-.1-.2-.4-.3-.6-.1-.2.1-.3.4-.1.6l4.2 7.2zM4.3 14.2c-.1.2 0 .4.1.6l7.2 4.2c.1-.2.3-.5.4-.7l-7.2-4.2c-.1-.1-.4-.1-.5.1zM43.6 3.5c-.2-.1-.4 0-.6.1l-4.4 7.6c.2.1.5.3.7.4L43.7 4c.2-.1.1-.4-.1-.5zM54 14.6c.2-.1.3-.4.1-.6-.1-.2-.4-.3-.6-.1L46 18.3c.1.2.3.5.4.7l7.6-4.4zm-44.8 14v-.4H.4c-.2 0-.4.2-.4.4s.2.4.4.4h8.8v-.4zm48.5-.4h-8.8v.8h8.8c.2 0 .4-.2.4-.4s-.2-.4-.4-.4zm-4.1 14.2l-7.2-4.2c-.1.2-.3.5-.4.7l7.2 4.2c.1 0 .1.1.2.1s.3-.1.4-.2c.1-.2 0-.5-.2-.6zm-49.5.2c-.2.1-.3.4-.1.6.1.1.2.2.4.2.1 0 .1 0 .2-.1l7.6-4.4c-.1-.2-.3-.5-.4-.7l-7.7 4.4zm35.2 3c-.2.1-.5.3-.7.4l4.2 7.3c.1.1.2.2.4.2.1 0 .1 0 .2-.1.2-.1.3-.4.1-.6l-4.2-7.2zm-25 7.6c-.1.2 0 .4.1.6.1 0 .1.1.2.1s.3-.1.4-.2l4.4-7.6c-.2-.1-.5-.3-.7-.4l-4.4 7.5zm14.3-4.8v8.4c0 .2.2.4.4.4s.4-.2.4-.4v-8.4h-.8zm14.3-27.1c.3-.2.4-.5.2-.8-.2-.3-.5-.4-.8-.2L30.7 27c-.4-.4-1-.7-1.6-.7-.6 0-1.2.3-1.6.7l-8.3-4.8c-.3-.2-.7-.1-.8.2-.2.3-.1.7.2.8l8.3 4.8c0 .2-.1.4-.1.6 0 1.3 1 2.3 2.3 2.3 1.3 0 2.3-1 2.3-2.3 0-.2 0-.4-.1-.6l11.6-6.7zm-12 5.9zm.2.2c-.1 0-.1 0 0 0-.1 0-.1 0 0 0zm-4.1 0zm.2-.2zm1.8 2.5c-.6 0-1.1-.5-1.1-1.1s.5-1.1 1.1-1.1c.6 0 1.1.5 1.1 1.1s-.5 1.1-1.1 1.1z"/></svg>