<svg xmlns="http://www.w3.org/2000/svg"><symbol id="icon-beard-2" viewBox="0 0 58 69"><path d="M51.6 22.2c.1-1.7.5-3.5.7-5.4.7-5.4 1.6-11.7-.1-16.8H52c-1.3 3.7-1.3 8.3-2.2 12.4-.7 3-1.8 5.7-3.2 7.6-.5.7-1.1 1.5-1.9 1.8-.7-3.9-4.3-4.9-7.7-6.4-2.1-.9-4-2-6.1-2.2-.8-.1-1.5.2-2 .2s-1.2-.3-2-.2c-2.1.1-4 1.3-6.1 2.2-3.4 1.4-7 2.4-7.7 6.4-.9-.3-1.4-1.1-1.9-1.8-1.5-1.9-2.6-4.6-3.2-7.6C7 8.3 7 3.7 5.7 0h-.2c-1.7 5.1-.8 11.4-.1 16.8.2 1.9.6 3.7.7 5.4.8 11.1-7 23.1-6 28.9.9 7.5 8.4 9.4 14.2 12.4 4.3 2.2 8.3 5 13.3 5.2h2.6c5-.2 9-2.9 13.3-5.2 5.8-3 13.2-4.8 14.2-12.4.9-5.8-6.9-17.8-6.1-28.9zm-22.8 3.7c-2.5 0-5.1-.1-7.2-.5.7-2.1 4-1.6 7.1-1.6h.2c3 0 6.4-.5 7.1 1.6-2.1.5-4.6.6-7.2.5z"/></symbol><symbol id="icon-beard-3" viewBox="0 0 62 79"><path d="M62.4 42c0-5.2-2.4-7.8-3.6-10-.9-1.6-4-10.8-4.2-17.6C54.5 9.5 52.9 2 51.7 0c-.9 0-1.5 7.8-2.3 11.6-1.4 7-3.8 8.9-4.4 9-.8-2.8-4.1-7.4-13.7-7.7h-.2c-9.6.4-12.9 4.9-13.7 7.7-.7-.1-3-2-4.4-9C12.2 7.8 11.5 0 10.7 0 9.5 2 7.9 9.5 7.8 14.4c-.2 6.9-3.3 16-4.2 17.6C2.4 34.2 0 36.8 0 42c0 3.7 5.2 7.2 5.6 11.4.1 1.2 0 2.3.1 3.4 2 17.5 17.9 21.7 25.4 21.7 7.6 0 23.4-4.2 25.4-21.7.2-1 0-2.1.1-3.4.6-4.2 5.8-7.7 5.8-11.4zM33.2 26.8c-.7-.1-3.4-.1-4.1 0-1.7.3-5.8 1-5.8-1.1 0-1.1 6.7-2.3 7.8-2.3 1.1 0 7.8 1.2 7.8 2.3.1 2-3.9 1.4-5.7 1.1z"/></symbol><symbol id="icon-beard-4" viewBox="0 0 57 98"><path d="M51.1 15.2c-.4-5.4-.6-10.8-2.5-15.2-.8 0-1.5 7.3-2.3 10.9-1.5 7.1-3.7 8.3-4.4 8.3-.9-3.9-4.4-4.2-7.8-5.9-1.2-.6-2.3-1.1-3.6-1.2-.7-.1-1.3.1-2 .1s-1.3-.2-2-.1c-1.3.1-2.4.6-3.6 1.2-3.4 1.6-6.9 2-7.8 5.9-.7 0-3-1.1-4.4-8.3C9.9 7.3 9.2 0 8.4 0 6.5 4.4 6.3 9.8 5.9 15.2 5 38.8 0 51.5 0 62.4c0 26.1 11.7 35.3 28.5 35.3S57 88.5 57 62.4c0-10.9-5-23.6-5.9-47.2zM34.4 25c-2.8 1.2-5.4-.7-5.9-.7h-.2c-.5 0-3.1 1.9-5.9.7-.8-3.6 2.4-4 5.9-3.9 3.7-.2 6.9.3 6.1 3.9z"/></symbol><symbol id="icon-beard-5" viewBox="0 0 45 105"><path d="M43.4 0h-.1c-2.8 21.5-5.4 22.6-7 22.7-1.4.1-3.6-1.8-4.9-2.5-1.5-.9-4.1-2.5-9.1-2.5s-7.6 1.7-9.1 2.5c-1.3.7-3.5 2.6-4.9 2.5-1.6-.1-4.1-1.2-7-22.7h-.1C-.9 12.2-.4 50.2 2.4 63.6 5 82.1 12.5 98.7 15.8 103.2c.7 1 3.5 1.6 6.4 1.6 2.9 0 5.7-.5 6.4-1.6 3.3-4.5 10.8-21.1 13.4-39.6 2.9-13.4 3.5-51.4 1.4-63.6zM22.3 28.2c-3.4 0-6.7.2-10.1.5 1.1-1.8 9-3.2 10.1-3.4 1.1.2 9 1.7 10.1 3.4-3.4-.4-6.7-.5-10.1-.5z"/></symbol><symbol id="icon-login-lock" viewBox="0 0 15 17"><path d="M13 5.5c0-3-2.5-5.5-5.5-5.5h-.1C4.4 0 2 2.3 1.9 5.3v.2h-.6c-.5-.2-1.1.1-1.2.7v9.4c-.2.5.1 1.1.6 1.4h13.1c.7-.1 1.3-.7 1.2-1.4V7c.1-.7-.4-1.4-1.1-1.5H13zm-1.2-.1c-.1-2.4-2-4.2-4.4-4.2-2.3.2-4.1 2-4.2 4.2h8.6zM7.2 7.5c1.1 0 2 .9 2 2.1 0 .8-.5 1.6-1.3 1.9-.1 0 .7 3.5.7 3.5H6c.3-1.2.5-2.3.6-3.5-.8-.3-1.3-1.1-1.3-1.9-.1-1.2.8-2.1 1.9-2.1z"/></symbol><symbol id="icon-login-user" viewBox="0 0 15 15"><path d="M6.8.2c-.3 0-.5.1-.7.3h-.8c-.7.3-1.1.9-1.2 1.7v2.1c.1.4-.2.4-.2.4-.5 0-.3 1.5-.3 1.5 0 .4.3.8.8.8.3.6.7 1.2 1.3 1.5v1.1c-.1 0 .3 1.2-2.1 1.5S.8 12.2.4 12.6 0 15 0 15h15s-.1-2-.5-2.4-.9-1.2-3.2-1.5C9 10.8 9.4 9.6 9.4 9.5v-.9c.5-.4.9-1 1.1-1.6.4-.1.7-.4.9-.8 0 0 .2-1.6-.4-1.6 0 0-.3.1-.2-.3.1-.6.1-1.2 0-1.9 0-.4 0-1.5-.8-1.7-.3 0-.6-.1-.9 0-.3 0-.7-.7-1.2-.7L6.8.2z"/></symbol><symbol id="icon-login" viewBox="0 0 16 16"><g clip-rule="evenodd"><path d="M15 0H8c-.6 0-1 .4-1 1s.4 1 1 1h6v12H8c-.6 0-1 .4-1 1s.4 1 1 1h7c.6 0 1-.4 1-1V1c0-.6-.4-1-1-1z"/><path d="M7 12l4-4-4-4v3H.9C.4 7 0 7.4 0 8s.4 1 .9 1H7v3z"/></g></symbol><symbol id="icon-service-beard" viewBox="0 0 22 21"><path d="M21.8 0h-.1c-1 3.3-1.3 7.3-4 8.8-.5-1.4-1.8-2.1-3.2-2.7-.9-.4-1.9-1.1-2.8-1.1-.2 0-.4 0-.6.1-.3-.1-.5-.1-.7-.1-.9 0-1.9.7-2.8 1.1-1.5.7-2.7 1.3-3.2 2.7-2.8-1.5-3-5.6-4-8.8H.3C.1.3.1.7 0 1c0 .8.2 9.2.8 12.2.5 2.7 2.6 4.6 4.6 5.9 1.4.9 3.6 2.1 5.6 2.1 1.9 0 4.2-1.2 5.6-2.1 2-1.3 4.1-3.2 4.6-5.9.6-3 .8-11.4.8-12.2 0-.3-.1-.7-.2-1zm-6 12c-.1.7-.7 1.5-1.4 1.5-1.3.1-1.9-1.9-3.4-1.9-1.4 0-2.1 1.9-3.4 1.9-.7 0-1.3-.8-1.4-1.5-.1-.8.3-2 .7-2.4.5-.5 1.2-.4 2-.5.9-.1 1.7-.4 2.1-.8.5.5 1.2.7 2.1.8.8.1 1.5.1 2 .5.5.5.9 1.6.7 2.4z"/></symbol><symbol id="icon-service-mustache" viewBox="0 0 45 13"><path d="M22.5 8.2c1.2 1.7 3.6 4.4 8.8 4.7 7.1.3 13.7-5.2 13.7-7.3-2.8 2.5-7.4 2.7-9.9 1.7C31.3 5.8 32 2.8 29.2.9c-1.6-1.1-3.8-1.2-5.7 0-.3.2-.7.5-1 .8-.3-.3-.7-.6-1-.8-1.9-1.2-4.1-1.1-5.7 0-2.8 2-2.1 4.9-5.9 6.4-2.5 1-7.1.8-9.9-1.7 0 2.1 6.5 7.6 13.7 7.3 5.2-.2 7.6-3 8.8-4.7z"/></symbol><symbol id="icon-service-scissors" viewBox="0 0 23 20"><path d="M8.5 4c0-2.2-1.8-4-4-4s-4 1.8-4 4 1.8 4 4 4c.6 0 1.1-.1 1.6-.4L8.5 10l-2.4 2.4c-.5-.3-1-.4-1.6-.4-2.2 0-4 1.8-4 4s1.8 4 4 4 4-1.8 4-4c0-.6-.1-1.1-.4-1.6l2.4-2.4 7 7h4L8.1 5.6c.3-.5.4-1 .4-1.6zm-4 2c-1.1 0-2-.9-2-2s.9-2 2-2 2 .9 2 2-.9 2-2 2zm0 12c-1.1 0-2-.9-2-2s.9-2 2-2 2 .9 2 2-.9 2-2 2zm6-8.5c.3 0 .5.2.5.5s-.2.5-.5.5-.5-.2-.5-.5.2-.5.5-.5zm11-8.5h-4l-6 6 2 2 8-8z"/></symbol><symbol id="icon-social-facebook" viewBox="0 0 19 36"><path d="M18.7.3V6h-3.4c-1.2 0-2.1.3-2.5.8s-.7 1.3-.7 2.3v4.1h6.4l-.8 6.4h-5.5v16.5H5.5V19.6H0v-6.4h5.5V8.5c0-2.7.8-4.8 2.3-6.3s3.5-2.2 6-2.2c2.1 0 3.8.1 4.9.3z"/></symbol><symbol id="icon-social-instagram" viewBox="0 0 36 36"><path d="M33.6 0H2.2C1 0 0 1 0 2.2v31.4c0 1.2 1 2.2 2.2 2.2h31.4c1.2 0 2.2-1 2.2-2.2V2.2c0-1.2-1-2.2-2.2-2.2zM13.4 17.9s.4-4.5 4.5-4.5 4.5 4.5 4.5 4.5.1 4.5-4.5 4.5-4.5-4.5-4.5-4.5zm18 13.5H4.5V15.7h4.8c-.2.7-.3 1.4-.3 2.2 0 4.9 4 9 9 9s9-4 9-9c0-.8-.1-1.5-.3-2.2h4.8v15.7zm0-20.2h-6.7V4.5h6.7v6.7z"/></symbol><symbol id="icon-social-vk" viewBox="0 0 27 15"><path d="M26 13.47l-.09-.17a13.55 13.55 0 0 0-2.6-3q-.87-.83-1.1-1.12A1 1 0 0 1 22 8a10.27 10.27 0 0 1 1.22-1.78l.88-1.16q2.35-3.13 2-4L26 .94a.8.8 0 0 0-.4-.22 2.14 2.14 0 0 0-.87 0h-3.92a.51.51 0 0 0-.27 0h-.3a.6.6 0 0 0-.15.14.93.93 0 0 0-.14.24 22.22 22.22 0 0 1-1.46 3.06q-.5.84-.93 1.46a7 7 0 0 1-.71.91 4.94 4.94 0 0 1-.52.47q-.23.18-.35.15l-.23-.05a.9.9 0 0 1-.31-.33 1.49 1.49 0 0 1-.16-.53V1.6a3.14 3.14 0 0 0 0-.62 2.12 2.12 0 0 0-.14-.44.73.73 0 0 0-.28-.33 1.57 1.57 0 0 0-.46-.18A9 9 0 0 0 12.57 0a8.93 8.93 0 0 0-3.25.33 1.83 1.83 0 0 0-.52.41q-.25.3-.07.33a1.67 1.67 0 0 1 1.16.59l.08.16a2.6 2.6 0 0 1 .19.63 6.32 6.32 0 0 1 .12 1 10.59 10.59 0 0 1 0 1.7q-.07.71-.13 1.1a2.21 2.21 0 0 1-.18.64 2.69 2.69 0 0 1-.16.3l-.07.07a1 1 0 0 1-.37.07.86.86 0 0 1-.46-.19 3.27 3.27 0 0 1-.56-.52 7 7 0 0 1-.66-.93q-.37-.6-.76-1.42l-.22-.39q-.2-.38-.56-1.11t-.62-1.43A.9.9 0 0 0 5.2.9h-.07a.93.93 0 0 0-.22-.16A1.44 1.44 0 0 0 4.6.65L.87.68A1 1 0 0 0 .1.94L0 1a.44.44 0 0 0 0 .22 1.08 1.08 0 0 0 .08.37Q.9 3.53 1.86 5.31t1.66 2.87Q4.23 9.27 5 10.24t1 1.24l.37.41.34.33a8.06 8.06 0 0 0 1 .78 16.34 16.34 0 0 0 1.4.9 7.6 7.6 0 0 0 1.79.72 6.19 6.19 0 0 0 2 .22h1.57a1.08 1.08 0 0 0 .72-.3l.05-.07a.9.9 0 0 0 .1-.25 1.38 1.38 0 0 0 0-.37 4.48 4.48 0 0 1 .09-1.05 2.77 2.77 0 0 1 .23-.71 1.74 1.74 0 0 1 .29-.4 1.19 1.19 0 0 1 .23-.2h.11a.86.86 0 0 1 .77.21 4.52 4.52 0 0 1 .83.79q.39.47.93 1.05a6.41 6.41 0 0 0 1 .87l.27.16a3.31 3.31 0 0 0 .71.3 1.53 1.53 0 0 0 .76.07l3.48-.05a1.58 1.58 0 0 0 .8-.17.68.68 0 0 0 .34-.37 1.06 1.06 0 0 0 0-.46 1.71 1.71 0 0 0-.1-.36z"/></symbol></svg>